<svg width="57" height="57" viewBox="0 0 57 57" fill="none" xmlns="http://www.w3.org/2000/svg">
<path d="M0 28.5C0 12.7599 12.7599 0 28.5 0V0C44.2401 0 57 12.7599 57 28.5V28.5C57 44.2401 44.2401 57 28.5 57V57C12.7599 57 0 44.2401 0 28.5V28.5Z" fill="#16CFB0"/>
<path d="M28.5001 14.1666C30.4008 14.1666 32.2237 14.9217 33.5677 16.2657C34.9117 17.6097 35.6667 19.4326 35.6667 21.3333C35.6667 23.234 34.9117 25.0569 33.5677 26.4009C32.2237 27.7449 30.4008 28.5 28.5001 28.5C26.5994 28.5 24.7765 27.7449 23.4325 26.4009C22.0885 25.0569 21.3334 23.234 21.3334 21.3333C21.3334 19.4326 22.0885 17.6097 23.4325 16.2657C24.7765 14.9217 26.5994 14.1666 28.5001 14.1666V14.1666ZM28.5001 32.0833C36.4192 32.0833 42.8334 35.2904 42.8334 39.25V42.8333H14.1667V39.25C14.1667 35.2904 20.5809 32.0833 28.5001 32.0833Z" fill="white"/>
</svg>
