<svg width="49" height="48" viewBox="0 0 49 48" fill="none" xmlns="http://www.w3.org/2000/svg">
<rect x="0.092041" width="48" height="48" rx="24" fill="white"/>
<path fill-rule="evenodd" clip-rule="evenodd" d="M24.092 14C20.222 14 17.092 17.13 17.092 21C17.092 25.17 21.512 30.92 23.332 33.11C23.732 33.59 24.462 33.59 24.862 33.11C26.672 30.92 31.092 25.17 31.092 21C31.092 17.13 27.962 14 24.092 14ZM24.092 23.5C22.712 23.5 21.592 22.38 21.592 21C21.592 19.62 22.712 18.5 24.092 18.5C25.472 18.5 26.592 19.62 26.592 21C26.592 22.38 25.472 23.5 24.092 23.5Z" fill="#054FF0"/>
</svg>
