<svg width="38" height="38" viewBox="0 0 38 38" fill="none" xmlns="http://www.w3.org/2000/svg">
<path opacity="0.4" d="M30.1654 30C28.1304 30 26.4987 31.6316 26.4987 33.6666C26.4987 34.6391 26.885 35.5717 27.5726 36.2594C28.2603 36.947 29.1929 37.3333 30.1654 37.3333C31.1378 37.3333 32.0705 36.947 32.7581 36.2594C33.4457 35.5717 33.832 34.6391 33.832 33.6666C33.832 32.6942 33.4457 31.7615 32.7581 31.0739C32.0705 30.3863 31.1378 30 30.1654 30ZM0.832031 0.666626V4.33329H4.4987L11.0987 18.2483L8.60536 22.74C8.33036 23.2533 8.16536 23.8583 8.16536 24.5C8.16536 25.4724 8.55167 26.4051 9.23931 27.0927C9.92694 27.7803 10.8596 28.1666 11.832 28.1666H33.832V24.5H12.602C12.4805 24.5 12.3639 24.4517 12.2779 24.3657C12.192 24.2798 12.1437 24.1632 12.1437 24.0416C12.1437 23.95 12.162 23.8766 12.1987 23.8216L13.8487 20.8333H27.507C28.882 20.8333 30.092 20.0633 30.7154 18.945L37.2787 7.08329C37.407 6.78996 37.4987 6.47829 37.4987 6.16663C37.4987 5.6804 37.3055 5.21408 36.9617 4.87026C36.6179 4.52645 36.1516 4.33329 35.6654 4.33329H8.55036L6.82703 0.666626H0.832031ZM11.832 30C9.79703 30 8.16536 31.6316 8.16536 33.6666C8.16536 34.6391 8.55167 35.5717 9.23931 36.2594C9.92694 36.947 10.8596 37.3333 11.832 37.3333C12.8045 37.3333 13.7371 36.947 14.4248 36.2594C15.1124 35.5717 15.4987 34.6391 15.4987 33.6666C15.4987 32.6942 15.1124 31.7615 14.4248 31.0739C13.7371 30.3863 12.8045 30 11.832 30Z" fill="#16CFB0"/>
</svg>
