<svg width="17" height="18" viewBox="0 0 17 18" fill="none" xmlns="http://www.w3.org/2000/svg">
<path fill-rule="evenodd" clip-rule="evenodd" d="M5.32381 2.75997L6.15114 1.1053C6.23245 0.942687 6.39865 0.839966 6.58046 0.839966H10.4205C10.6023 0.839966 10.7685 0.942687 10.8498 1.1053L11.6771 2.75997H16.1798C16.4449 2.75997 16.6598 2.97487 16.6598 3.23997C16.6598 3.50506 16.4449 3.71997 16.1798 3.71997H14.7419L13.9411 14.931C13.8514 16.1869 12.8064 17.16 11.5472 17.16H5.51445C4.25467 17.16 3.2093 16.1859 3.12043 14.9293L2.32773 3.71997H0.819844C0.554747 3.71997 0.339844 3.50506 0.339844 3.23997C0.339844 2.97487 0.554747 2.75997 0.819844 2.75997H5.32381ZM6.39712 2.75997H10.6038L10.1238 1.79997H6.87712L6.39712 2.75997ZM11.3815 7.04013L10.9015 12.8001C10.8795 13.0643 11.0758 13.2963 11.34 13.3183C11.6042 13.3403 11.8362 13.144 11.8582 12.8799L12.3382 7.11985C12.3602 6.85567 12.1639 6.62367 11.8997 6.60165C11.6356 6.57964 11.4035 6.77595 11.3815 7.04013ZM5.58001 6.60165C5.84419 6.57964 6.0762 6.77595 6.09821 7.04013L6.57821 12.8001C6.60023 13.0643 6.40391 13.2963 6.13973 13.3183C5.87555 13.3403 5.64354 13.144 5.62153 12.8799L5.14153 7.11985C5.11951 6.85567 5.31583 6.62367 5.58001 6.60165ZM8.01984 7.07997V12.84C8.01984 13.1051 8.23475 13.32 8.49984 13.32C8.76494 13.32 8.97984 13.1051 8.97984 12.84V7.07997C8.97984 6.81487 8.76494 6.59997 8.49984 6.59997C8.23475 6.59997 8.01984 6.81487 8.01984 7.07997Z" fill="#DE3618"/>
</svg>
