<svg width="19" height="17" viewBox="0 0 19 17" fill="none" xmlns="http://www.w3.org/2000/svg">
<path fill-rule="evenodd" clip-rule="evenodd" d="M16.7092 1.15749C14.2892 -0.492511 11.3009 0.277489 9.68753 2.16582C8.0742 0.277489 5.08587 -0.501677 2.66587 1.15749C1.38253 2.03749 0.575866 3.52249 0.520866 5.08999C0.392533 8.64666 3.54587 11.4975 8.35837 15.87L8.45003 15.9525C9.1467 16.585 10.2192 16.585 10.9159 15.9433L11.0167 15.8517C15.8292 11.4883 18.9734 8.63749 18.8542 5.08082C18.7992 3.52249 17.9925 2.03749 16.7092 1.15749ZM9.7792 14.5042L9.68753 14.5958L9.59587 14.5042C5.23253 10.5533 2.3542 7.94082 2.3542 5.29166C2.3542 3.45832 3.7292 2.08332 5.56253 2.08332C6.9742 2.08332 8.3492 2.99082 8.83503 4.24666H10.5492C11.0259 2.99082 12.4009 2.08332 13.8125 2.08332C15.6459 2.08332 17.0209 3.45832 17.0209 5.29166C17.0209 7.94082 14.1425 10.5533 9.7792 14.5042Z" fill="#054FF0"/>
</svg>
