<svg width="551" height="80" viewBox="0 0 551 80" fill="none" xmlns="http://www.w3.org/2000/svg">
<g clip-path="url(#clip0_7776_1188)">
<path d="M94.8757 0.441895H124.483C139.894 0.441895 150.031 9.87251 150.031 24.5479C150.031 39.2234 139.906 48.7675 124.483 48.7675H104.444V78.9379H94.8633V0.441895H94.8757ZM104.456 9.40602V39.7907H123.605C133.73 39.7907 140.228 33.8525 140.228 24.5353C140.228 15.2182 133.853 9.39341 123.716 9.39341H104.456V9.40602Z" fill="#F6F5F3"/>
<path d="M185.018 21.9106V30.8494H180.542C168.879 30.8494 165.702 40.8065 165.702 49.8584V78.9376H156.762V21.9106H164.513L165.702 30.5225C168.315 26.16 172.583 21.9106 182.504 21.9106H185.018Z" fill="#F6F5F3"/>
<path d="M184.365 50.4396C184.365 33.1 195.128 21.2427 210.927 21.2427C226.726 21.2427 237.057 31.4277 237.489 48.3021C237.489 49.5217 237.378 50.8797 237.267 52.2126H193.782V52.9922C194.116 63.8436 200.818 71.4509 211.458 71.4509C219.357 71.4509 225.504 67.2009 227.38 59.8199H236.49C234.292 71.2246 225.072 79.6115 212.124 79.6115C195.338 79.6115 184.34 67.8673 184.34 50.4145H184.352L184.365 50.4396ZM227.849 44.643C226.973 34.7975 220.382 29.3152 211.05 29.3152C202.818 29.3152 195.239 35.3508 194.362 44.643H227.862H227.849Z" fill="#F6F5F3"/>
<path d="M326.971 46.0691V78.9406H317.998V46.6222C317.998 35.4472 313.172 29.6271 304.752 29.6271C295.433 29.6271 289.746 36.7922 289.746 48.4072V78.9406H280.772V46.6222C280.772 35.4472 275.848 29.6271 267.305 29.6271C258.097 29.6271 252.521 37.4584 252.521 48.8597V78.9406H243.547V21.9089H251.327L252.521 29.7402C255.475 25.592 260.19 21.2427 268.832 21.2427C276.611 21.2427 283.296 24.8127 286.459 32.0909C289.845 25.944 295.876 21.2427 305.835 21.2427C317.431 21.2427 326.971 28.0684 326.971 46.0565V46.0691Z" fill="#F6F5F3"/>
<path d="M335.045 6.36303C335.045 2.90589 337.534 0.441895 340.764 0.441895C343.993 0.441895 346.482 2.90589 346.482 6.36303C346.482 9.82018 343.993 12.2842 340.764 12.2842C337.534 12.2842 335.045 9.82018 335.045 6.36303ZM336.223 21.9139H345.074V78.9379H336.223V21.9139Z" fill="#F6F5F3"/>
<path d="M350.544 50.4396C350.544 33.1 361.307 21.2427 377.107 21.2427C392.906 21.2427 403.237 31.4277 403.669 48.3021C403.669 49.5217 403.558 50.8797 403.447 52.2126H359.962V52.9922C360.295 63.8436 366.998 71.4509 377.637 71.4509C385.537 71.4509 391.684 67.2009 393.56 59.8199H402.669C400.472 71.2246 391.252 79.6115 378.304 79.6115C361.517 79.6115 350.52 67.8673 350.52 50.4145H350.532L350.544 50.4396ZM394.029 44.643C393.153 34.7975 386.561 29.3152 377.23 29.3152C368.997 29.3152 361.419 35.3508 360.542 44.643H394.041H394.029Z" fill="#F6F5F3"/>
<path d="M437.977 21.9106V30.8494H433.501C421.838 30.8494 418.661 40.8065 418.661 49.8584V78.9376H409.721V21.9106H417.472L418.661 30.5225C421.274 26.16 425.542 21.9106 435.463 21.9106H437.977Z" fill="#F6F5F3"/>
<path d="M76.024 11.7985L27.3305 61.4943L6.72715 40.4668C-2.24238 31.3126 -2.24238 16.4617 6.72715 7.30752C15.6967 -1.84665 30.248 -1.84665 39.2176 7.30752L48.7658 17.04L64.9568 0.515719L76.0119 11.7985H76.024Z" fill="#054FF0"/>
<path d="M68.2507 72.3247C59.7285 81.1304 45.8754 81.1429 37.3532 72.3247L28.9277 63.6189L61.5054 29.9575L68.2507 36.9271C77.7157 46.707 77.7157 62.5448 68.2507 72.3247Z" fill="#F6F5F3"/>
<path d="M24.8928 63.9598L10.844 78.9393L0 67.9364L14.0488 52.7739L24.8928 63.9598Z" fill="#F6F5F3"/>
</g>
<path d="M448.793 21.9771H457.177C461.539 21.9771 464.408 24.7816 464.408 29.1454C464.408 33.5093 461.539 36.3604 457.177 36.3604H451.509V45.3325H448.793V21.9887V21.9771ZM451.509 24.6419V33.6839H456.93C459.799 33.6839 461.633 31.9151 461.633 29.1454C461.633 26.3758 459.834 24.6419 456.953 24.6419H451.509Z" fill="#F6F5F3"/>
<path d="M480.577 35.864V45.3365H478.026V36.0385C478.026 32.5009 476.438 30.639 473.687 30.639C470.724 30.639 468.889 33.0013 468.889 36.8415V45.3482H466.338V21.9927H468.889V31.1277C469.818 29.5335 471.441 28.1254 474.134 28.1254C477.697 28.1254 480.577 30.2317 480.577 35.864Z" fill="#F6F5F3"/>
<path d="M498.095 42.8151V45.317H496.696C494.568 45.317 493.85 44.3511 493.827 42.687C492.827 44.2231 491.24 45.5265 488.5 45.5265C485.008 45.5265 482.633 43.6646 482.633 40.5458C482.633 37.1478 484.843 35.2394 489.018 35.2394H493.698V34.064C493.698 31.8646 492.228 30.5264 489.735 30.5264C487.489 30.5264 485.996 31.6552 485.69 33.4007H483.138C483.515 30.0725 486.043 28.0942 489.876 28.0942C493.921 28.0942 496.261 30.2587 496.261 34.2269V41.663C496.261 42.559 496.567 42.7918 497.284 42.7918H498.083L498.095 42.8151ZM493.698 37.5551H488.771C486.49 37.5551 485.208 38.4512 485.208 40.3946C485.208 42.0587 486.548 43.1991 488.677 43.1991C491.851 43.1991 493.698 41.2324 493.698 38.4046V37.5668H493.709L493.698 37.5551Z" fill="#F6F5F3"/>
<path d="M508.123 28.3247V31.0012H506.841C503.514 31.0012 502.597 33.9687 502.597 36.6684V45.338H500.045V28.3363H502.256L502.597 30.8965C503.349 29.5931 504.572 28.3363 507.394 28.3363H508.111L508.123 28.3247Z" fill="#F6F5F3"/>
<path d="M533.471 35.5108V45.3208H530.919V35.6738C530.919 32.3456 529.543 30.6 527.145 30.6C524.499 30.6 522.865 32.7412 522.865 36.1974V45.2976H520.313V35.6505C520.313 32.3223 518.914 30.5767 516.48 30.5767C513.869 30.5767 512.282 32.9158 512.282 36.3138V45.2859H509.73V28.2843H511.941L512.282 30.6233C513.117 29.3898 514.469 28.0864 516.927 28.0864C519.137 28.0864 521.042 29.1454 521.948 31.3215C522.912 29.4945 524.617 28.0864 527.462 28.0864C530.766 28.0864 533.483 30.1229 533.483 35.4876V35.5108H533.471Z" fill="#F6F5F3"/>
<path d="M550.999 42.8151V45.317H549.6C547.472 45.317 546.755 44.3511 546.731 42.687C545.732 44.2231 544.144 45.5265 541.405 45.5265C537.912 45.5265 535.537 43.6646 535.537 40.5458C535.537 37.1478 537.748 35.2394 541.922 35.2394H546.602V34.064C546.602 31.8646 545.132 30.5264 542.639 30.5264C540.393 30.5264 538.9 31.6552 538.594 33.4007H536.043C536.407 30.0725 538.947 28.0942 542.78 28.0942C546.825 28.0942 549.165 30.2587 549.165 34.2269V41.663C549.165 42.559 549.471 42.7918 550.188 42.7918H550.988L550.999 42.8151ZM546.602 37.5551H541.687C539.406 37.5551 538.124 38.4512 538.124 40.3946C538.124 42.0587 539.464 43.1991 541.593 43.1991C544.767 43.1991 546.614 41.2324 546.614 38.4046V37.5668L546.602 37.5551Z" fill="#F6F5F3"/>
<defs>
<clipPath id="clip0_7776_1188">
<rect width="431.251" height="79.1669" fill="white" transform="translate(0 0.441895)"/>
</clipPath>
</defs>
</svg>
