<svg width="34" height="31" viewBox="0 0 34 31" fill="none" xmlns="http://www.w3.org/2000/svg">
<path d="M15.9299 26.9044L15.927 26.9018C11.596 22.9744 8.16245 19.8514 5.78827 16.9468C3.43609 14.069 2.3335 11.6508 2.3335 9.16667C2.3335 5.12362 5.46902 2 9.50016 2C11.7956 2 14.0317 3.07892 15.4825 4.76923L17.0002 6.53753L18.5178 4.76923C19.9686 3.07892 22.2048 2 24.5002 2C28.5313 2 31.6668 5.12362 31.6668 9.16667C31.6668 11.6508 30.5642 14.069 28.212 16.9468C25.8379 19.8514 22.4043 22.9744 18.0733 26.9018L18.0705 26.9044L17.0002 27.8787L15.9299 26.9044Z" stroke="black" stroke-width="4"/>
</svg>
