<svg width="268" height="39" viewBox="0 0 268 39" fill="none" xmlns="http://www.w3.org/2000/svg">
<g clip-path="url(#clip0_7545_111901)">
<path d="M46.1464 0.330566H60.5473C68.0427 0.330566 72.9734 4.91751 72.9734 12.0555C72.9734 19.1935 68.0487 23.8356 60.5473 23.8356H50.8002V38.5101H46.1404V0.330566H46.1464ZM50.8062 4.69062V19.4694H60.1198C65.0445 19.4694 68.2052 16.5811 68.2052 12.0494C68.2052 7.5176 65.1047 4.68448 60.174 4.68448H50.8062V4.69062Z" fill="#F6F5F3"/>
<path d="M89.9911 10.7725V15.1202H87.8138C82.1409 15.1202 80.5959 19.9632 80.5959 24.3659V38.5098H76.2473V10.7725H80.0173L80.5959 14.9612C81.8665 12.8393 83.9424 10.7725 88.7682 10.7725H89.9911Z" fill="#F6F5F3"/>
<path d="M89.6729 24.6488C89.6729 16.215 94.908 10.4478 102.593 10.4478C110.277 10.4478 115.302 15.4016 115.512 23.6091C115.512 24.2024 115.458 24.8629 115.404 25.5112H94.2536V25.8904C94.4157 31.1684 97.6756 34.8685 102.851 34.8685C106.693 34.8685 109.683 32.8013 110.595 29.2113H115.026C113.957 34.7584 109.473 38.8377 103.175 38.8377C95.0101 38.8377 89.6609 33.1255 89.6609 24.6366H89.6669L89.6729 24.6488ZM110.823 21.8294C110.397 17.0407 107.191 14.3742 102.653 14.3742C98.6482 14.3742 94.962 17.3098 94.5358 21.8294H110.829H110.823Z" fill="#F6F5F3"/>
<path d="M159.035 22.5231V38.5114H154.67V22.7921C154.67 17.3567 152.323 14.5258 148.228 14.5258C143.695 14.5258 140.929 18.0109 140.929 23.6603V38.5114H136.564V22.7921C136.564 17.3567 134.17 14.5258 130.014 14.5258C125.536 14.5258 122.823 18.3349 122.823 23.8804V38.5114H118.458V10.7718H122.243L122.823 14.5809C124.26 12.5632 126.553 10.4478 130.757 10.4478C134.541 10.4478 137.792 12.1842 139.331 15.7242C140.977 12.7344 143.911 10.4478 148.755 10.4478C154.395 10.4478 159.035 13.7677 159.035 22.5169V22.5231Z" fill="#F6F5F3"/>
<path d="M162.962 3.21054C162.962 1.52903 164.173 0.330566 165.744 0.330566C167.314 0.330566 168.525 1.52903 168.525 3.21054C168.525 4.89206 167.314 6.09052 165.744 6.09052C164.173 6.09052 162.962 4.89206 162.962 3.21054ZM163.535 10.7743H167.84V38.5101H163.535V10.7743Z" fill="#F6F5F3"/>
<path d="M170.501 24.6488C170.501 16.215 175.736 10.4478 183.42 10.4478C191.105 10.4478 196.13 15.4016 196.34 23.6091C196.34 24.2024 196.286 24.8629 196.232 25.5112H175.081V25.8904C175.243 31.1684 178.503 34.8685 183.678 34.8685C187.521 34.8685 190.51 32.8013 191.423 29.2113H195.854C194.785 34.7584 190.3 38.8377 184.003 38.8377C175.838 38.8377 170.489 33.1255 170.489 24.6366H170.495L170.501 24.6488ZM191.651 21.8294C191.225 17.0407 188.019 14.3742 183.48 14.3742C179.476 14.3742 175.79 17.3098 175.363 21.8294H191.657H191.651Z" fill="#F6F5F3"/>
<path d="M213.027 10.7725V15.1202H210.85C205.177 15.1202 203.632 19.9632 203.632 24.3659V38.5098H199.284V10.7725H203.054L203.632 14.9612C204.903 12.8393 206.979 10.7725 211.805 10.7725H213.027Z" fill="#F6F5F3"/>
<path d="M36.9772 5.85428L13.2933 30.0258L3.27201 19.7982C-1.09067 15.3457 -1.09067 8.12242 3.27201 3.66993C7.63469 -0.782556 14.7123 -0.782556 19.075 3.66993L23.7191 8.40369L31.5942 0.366474L36.9714 5.85428H36.9772Z" fill="#054FF0"/>
<path d="M33.1963 35.2934C29.0512 39.5764 22.3132 39.5825 18.1681 35.2934L14.0701 31.0591L29.9155 14.6865L33.1963 18.0765C37.8 22.8333 37.8 30.5366 33.1963 35.2934Z" fill="#F6F5F3"/>
<path d="M12.1076 31.2248L5.27442 38.5107L0 33.159L6.83317 25.7842L12.1076 31.2248Z" fill="#F6F5F3"/>
</g>
<path d="M218.288 10.8047H222.366C224.487 10.8047 225.883 12.1688 225.883 14.2913C225.883 16.4139 224.487 17.8006 222.366 17.8006H219.609V22.1645H218.288V10.8103V10.8047ZM219.609 12.1009V16.4988H222.246C223.641 16.4988 224.533 15.6384 224.533 14.2913C224.533 12.9442 223.658 12.1009 222.257 12.1009H219.609Z" fill="#F6F5F3"/>
<path d="M233.747 17.5594V22.1667H232.506V17.6443C232.506 15.9236 231.734 15.018 230.396 15.018C228.955 15.018 228.062 16.167 228.062 18.0348V22.1723H226.821V10.8125H228.062V15.2557C228.514 14.4803 229.303 13.7954 230.613 13.7954C232.346 13.7954 233.747 14.8199 233.747 17.5594Z" fill="#F6F5F3"/>
<path d="M242.268 20.9403V22.1572H241.587C240.552 22.1572 240.203 21.6874 240.192 20.8781C239.706 21.6252 238.934 22.2591 237.601 22.2591C235.902 22.2591 234.747 21.3535 234.747 19.8366C234.747 18.1838 235.822 17.2556 237.853 17.2556H240.129V16.6839C240.129 15.6141 239.414 14.9632 238.201 14.9632C237.109 14.9632 236.383 15.5123 236.234 16.3613H234.993C235.176 14.7425 236.406 13.7803 238.27 13.7803C240.237 13.7803 241.376 14.8331 241.376 16.7632V20.38C241.376 20.8158 241.524 20.929 241.873 20.929H242.262L242.268 20.9403ZM240.129 18.3819H237.732C236.623 18.3819 236 18.8178 236 19.763C236 20.5724 236.652 21.1271 237.687 21.1271C239.231 21.1271 240.129 20.1705 240.129 18.7951V18.3876H240.135L240.129 18.3819Z" fill="#F6F5F3"/>
<path d="M247.145 13.8926V15.1944H246.522C244.903 15.1944 244.457 16.6377 244.457 17.9509V22.1677H243.216V13.8982H244.291L244.457 15.1435C244.823 14.5095 245.418 13.8982 246.791 13.8982H247.139L247.145 13.8926Z" fill="#F6F5F3"/>
<path d="M259.474 17.3875V22.159H258.233V17.4668C258.233 15.848 257.564 14.999 256.397 14.999C255.11 14.999 254.315 16.0404 254.315 17.7215V22.1477H253.074V17.4554C253.074 15.8366 252.394 14.9876 251.21 14.9876C249.94 14.9876 249.168 16.1253 249.168 17.7781V22.142H247.927V13.8726H249.002L249.168 15.0103C249.574 14.4103 250.232 13.7764 251.427 13.7764C252.502 13.7764 253.429 14.2914 253.869 15.3499C254.338 14.4612 255.167 13.7764 256.552 13.7764C258.159 13.7764 259.48 14.7669 259.48 17.3762V17.3875H259.474Z" fill="#F6F5F3"/>
<path d="M268 20.9403V22.1572H267.319C266.284 22.1572 265.935 21.6874 265.924 20.8781C265.438 21.6252 264.666 22.2591 263.333 22.2591C261.635 22.2591 260.479 21.3535 260.479 19.8366C260.479 18.1838 261.554 17.2556 263.585 17.2556H265.861V16.6839C265.861 15.6141 265.146 14.9632 263.934 14.9632C262.841 14.9632 262.115 15.5123 261.966 16.3613H260.725C260.902 14.7425 262.138 13.7803 264.002 13.7803C265.97 13.7803 267.108 14.8331 267.108 16.7632V20.38C267.108 20.8158 267.256 20.929 267.605 20.929H267.994L268 20.9403ZM265.861 18.3819H263.47C262.361 18.3819 261.737 18.8178 261.737 19.763C261.737 20.5724 262.389 21.1271 263.425 21.1271C264.969 21.1271 265.867 20.1705 265.867 18.7951V18.3876L265.861 18.3819Z" fill="#F6F5F3"/>
<defs>
<clipPath id="clip0_7545_111901">
<rect width="209.756" height="38.5059" fill="white" transform="translate(0 0.330566)"/>
</clipPath>
</defs>
</svg>
