<svg width="182" height="28" viewBox="0 0 182 28" fill="none" xmlns="http://www.w3.org/2000/svg">
<g clip-path="url(#clip0_7256_103208)">
<path d="M31.3388 0.925781H41.1186C46.2088 0.925781 49.5573 4.04082 49.5573 8.88828C49.5573 13.7357 46.2129 16.8883 41.1186 16.8883H34.4992V26.8539H31.3347V0.925781H31.3388ZM34.5033 3.88673V13.9231H40.8283C44.1727 13.9231 46.3192 11.9617 46.3192 8.88411C46.3192 5.80656 44.2136 3.88257 40.8651 3.88257H34.5033V3.88673Z" fill="#0D1834"/>
<path d="M61.1128 8.01562V10.9682H59.6342C55.7817 10.9682 54.7325 14.2571 54.7325 17.2471V26.8523H51.7793V8.01562H54.3395L54.7325 10.8602C55.5953 9.41924 57.0051 8.01562 60.2823 8.01562H61.1128Z" fill="#0D1834"/>
<path d="M60.8983 17.441C60.8983 11.7135 64.4535 7.79688 69.6722 7.79688C74.8908 7.79688 78.3033 11.1611 78.446 16.7349C78.446 17.1378 78.4093 17.5863 78.3726 18.0266H64.0091V18.2841C64.1192 21.8684 66.333 24.3812 69.8475 24.3812C72.4568 24.3812 74.4872 22.9774 75.1069 20.5394H78.1158C77.3901 24.3065 74.3445 27.0767 70.0676 27.0767C64.5228 27.0767 60.8901 23.1975 60.8901 17.4327H60.8942L60.8983 17.441ZM75.2618 15.5263C74.9723 12.2742 72.7952 10.4633 69.7129 10.4633C66.9935 10.4633 64.4902 12.4569 64.2007 15.5263H75.2659H75.2618Z" fill="#0D1834"/>
<path d="M108.002 15.9973V26.8551H105.038V16.18C105.038 12.4888 103.444 10.5663 100.663 10.5663C97.5847 10.5663 95.7062 12.9331 95.7062 16.7696V26.8551H92.742V16.18C92.742 12.4888 91.1155 10.5663 88.2936 10.5663C85.2522 10.5663 83.4102 13.1531 83.4102 16.9191V26.8551H80.446V8.01694H83.0158L83.4102 10.6037C84.3861 9.23351 85.9434 7.79688 88.7978 7.79688C91.3676 7.79688 93.5755 8.97608 94.6205 11.3802C95.7387 9.34977 97.7311 7.79688 101.021 7.79688C104.851 7.79688 108.002 10.0515 108.002 15.9932V15.9973Z" fill="#0D1834"/>
<path d="M110.669 2.8816C110.669 1.73967 111.492 0.925781 112.558 0.925781C113.625 0.925781 114.447 1.73967 114.447 2.8816C114.447 4.02353 113.625 4.83742 112.558 4.83742C111.492 4.83742 110.669 4.02353 110.669 2.8816ZM111.058 8.01822H113.982V26.8539H111.058V8.01822Z" fill="#0D1834"/>
<path d="M115.789 17.441C115.789 11.7135 119.344 7.79688 124.563 7.79688C129.781 7.79688 133.194 11.1611 133.336 16.7349C133.336 17.1378 133.3 17.5863 133.263 18.0266H118.899V18.2841C119.01 21.8684 121.223 24.3812 124.738 24.3812C127.347 24.3812 129.378 22.9774 129.997 20.5394H133.006C132.28 24.3065 129.235 27.0767 124.958 27.0767C119.413 27.0767 115.781 23.1975 115.781 17.4327H115.785L115.789 17.441ZM130.152 15.5263C129.863 12.2742 127.686 10.4633 124.603 10.4633C121.884 10.4633 119.381 12.4569 119.091 15.5263H130.156H130.152Z" fill="#0D1834"/>
<path d="M144.668 8.01562V10.9682H143.19C139.337 10.9682 138.288 14.2571 138.288 17.2471V26.8523H135.335V8.01562H137.895L138.288 10.8602C139.151 9.41924 140.561 8.01562 143.838 8.01562H144.668Z" fill="#0D1834"/>
<path d="M25.1116 4.67699L9.02758 21.0921L2.22205 14.1464C-0.740684 11.1227 -0.740684 6.2173 2.22205 3.19357C5.18479 0.16985 9.99127 0.16985 12.954 3.19357L16.1079 6.40831L21.4559 0.950166L25.1076 4.67699H25.1116Z" fill="#054FF0"/>
<path d="M22.545 24.6701C19.73 27.5787 15.1542 27.5829 12.3392 24.6701L9.55615 21.7945L20.3169 10.6758L22.545 12.9779C25.6714 16.2083 25.6714 21.4397 22.545 24.6701Z" fill="#0D1834"/>
<path d="M8.22237 21.9057L3.58191 26.8536L0 23.2193L4.64046 18.2109L8.22237 21.9057Z" fill="#0D1834"/>
</g>
<path d="M148.239 8.03906H151.009C152.449 8.03906 153.397 8.96543 153.397 10.4069C153.397 11.8483 152.449 12.79 151.009 12.79H149.136V15.7536H148.239V8.04291V8.03906ZM149.136 8.9193V11.906H150.927C151.875 11.906 152.481 11.3217 152.481 10.4069C152.481 9.49203 151.886 8.9193 150.935 8.9193H149.136Z" fill="#0D1834"/>
<path d="M158.738 12.6248V15.7537H157.895V12.6825C157.895 11.5139 157.371 10.8989 156.462 10.8989C155.483 10.8989 154.877 11.6792 154.877 12.9477V15.7575H154.035V8.04297H154.877V11.0604C155.184 10.5338 155.72 10.0687 156.61 10.0687C157.787 10.0687 158.738 10.7644 158.738 12.6248Z" fill="#0D1834"/>
<path d="M164.524 14.9249V15.7514H164.062C163.359 15.7514 163.122 15.4323 163.114 14.8827C162.784 15.3901 162.26 15.8206 161.355 15.8206C160.201 15.8206 159.417 15.2055 159.417 14.1754C159.417 13.053 160.147 12.4226 161.526 12.4226H163.072V12.0344C163.072 11.3079 162.586 10.8659 161.763 10.8659C161.021 10.8659 160.528 11.2387 160.427 11.8153H159.584C159.708 10.716 160.543 10.0625 161.809 10.0625C163.145 10.0625 163.918 10.7775 163.918 12.0882V14.5444C163.918 14.8404 164.019 14.9173 164.256 14.9173H164.52L164.524 14.9249ZM163.072 13.1875H161.444C160.691 13.1875 160.267 13.4835 160.267 14.1254C160.267 14.6751 160.71 15.0518 161.413 15.0518C162.462 15.0518 163.072 14.4022 163.072 13.4681V13.1914H163.075L163.072 13.1875Z" fill="#0D1834"/>
<path d="M167.837 10.1367V11.0208H167.414C166.315 11.0208 166.012 12.001 166.012 12.8927V15.7564H165.169V10.1406H165.899L166.012 10.9862C166.26 10.5557 166.664 10.1406 167.596 10.1406H167.833L167.837 10.1367Z" fill="#0D1834"/>
<path d="M176.21 12.511V15.7513H175.367V12.5648C175.367 11.4654 174.913 10.8889 174.12 10.8889C173.246 10.8889 172.707 11.5961 172.707 12.7377V15.7436H171.864V12.5571C171.864 11.4577 171.402 10.8812 170.598 10.8812C169.735 10.8812 169.211 11.6538 169.211 12.7762V15.7398H168.368V10.1239H169.098L169.211 10.8965C169.487 10.4891 169.933 10.0586 170.745 10.0586C171.475 10.0586 172.105 10.4084 172.404 11.1272C172.722 10.5237 173.285 10.0586 174.225 10.0586C175.317 10.0586 176.214 10.7313 176.214 12.5033V12.511H176.21Z" fill="#0D1834"/>
<path d="M182 14.9249V15.7514H181.538C180.835 15.7514 180.598 15.4323 180.59 14.8827C180.26 15.3901 179.736 15.8206 178.831 15.8206C177.677 15.8206 176.893 15.2055 176.893 14.1754C176.893 13.053 177.623 12.4226 179.002 12.4226H180.548V12.0344C180.548 11.3079 180.062 10.8659 179.239 10.8659C178.497 10.8659 178.004 11.2387 177.903 11.8153H177.06C177.18 10.716 178.019 10.0625 179.285 10.0625C180.621 10.0625 181.394 10.7775 181.394 12.0882V14.5444C181.394 14.8404 181.495 14.9173 181.732 14.9173H181.996L182 14.9249ZM180.548 13.1875H178.924C178.171 13.1875 177.747 13.4835 177.747 14.1254C177.747 14.6751 178.19 15.0518 178.893 15.0518C179.942 15.0518 180.552 14.4022 180.552 13.4681V13.1914L180.548 13.1875Z" fill="#0D1834"/>
<defs>
<clipPath id="clip0_7256_103208">
<rect width="142.447" height="26.1497" fill="white" transform="translate(0 0.925781)"/>
</clipPath>
</defs>
</svg>
