<svg width="203" height="62" viewBox="0 0 203 62" fill="none" xmlns="http://www.w3.org/2000/svg">
<g clip-path="url(#clip0)">
<path d="M12.6371 28.2124H9.59961C6.42926 28.2124 4.03821 27.5211 2.42647 26.1384C1.60418 25.4026 0.958797 24.4902 0.5386 23.4695C0.118403 22.4488 -0.0657239 21.3462 -3.56603e-06 20.2442C-0.0629119 19.1346 0.12226 18.025 0.542023 16.9961C0.961785 15.9673 1.60557 15.0451 2.42647 14.2968C4.03821 12.8963 6.42926 12.1961 9.59961 12.1961H28.0992V28.2124H12.6371Z" fill="white"/>
<path d="M68.8445 9.49277C66.7803 6.37612 63.8495 3.93267 60.4138 2.46404C56.3415 0.739042 51.9496 -0.100827 47.5287 -4.5523e-06H28.0992V12.1961H46.59C49.7604 12.1961 52.1603 12.8963 53.772 14.2968C54.5913 15.0459 55.2334 15.9685 55.6516 16.9973C56.0699 18.0261 56.2536 19.1353 56.1896 20.2442C56.2565 21.3455 56.0737 22.4476 55.6551 23.4683C55.2364 24.489 54.5927 25.4017 53.772 26.1384C52.1603 27.5211 49.7604 28.2124 46.59 28.2124H28.0992V44.9466V61.9822C28.0992 61.9822 43.5525 61.3706 43.5525 49.9988V44.9466V40.4085H47.5287C51.9496 40.5094 56.3415 39.6695 60.4138 37.9445C63.84 36.4775 66.7683 34.0485 68.8445 30.9512C70.8701 27.7546 71.9026 24.0284 71.8111 20.2442C71.8997 16.4464 70.8678 12.7068 68.8445 9.49277Z" fill="white"/>
<path d="M85.139 35.5425V11.7264H93.5166C94.5976 11.7189 95.6713 11.9051 96.6869 12.2759C97.6389 12.6154 98.5146 13.1395 99.2639 13.8182C100.012 14.4824 100.615 15.2941 101.035 16.2024C101.468 17.1568 101.685 18.1947 101.673 19.2426C101.687 20.2683 101.483 21.2853 101.076 22.2265C100.668 23.1677 100.066 24.0116 99.3082 24.7025C98.557 25.3808 97.682 25.9075 96.7312 26.2536C95.715 26.6214 94.6414 26.8045 93.5608 26.7943H89.6732V35.5425H85.139ZM93.5786 22.5398C94.0672 22.5731 94.5573 22.5009 95.0157 22.3281C95.4741 22.1553 95.89 21.8859 96.2353 21.5382C96.8115 20.9136 97.1282 20.0927 97.1208 19.2426C97.1208 18.8228 97.0489 18.4061 96.9083 18.0106C96.762 17.6174 96.5324 17.2606 96.2353 16.9647C95.9154 16.6527 95.5358 16.4085 95.1195 16.2467C94.6217 16.0593 94.0926 15.969 93.5608 15.9808H89.6112V22.5398H93.5786Z" fill="white"/>
<path d="M104.285 19.2426H108.368V21.5116H108.633C108.838 21.1023 109.11 20.7306 109.439 20.4126C109.769 20.0715 110.141 19.7737 110.546 19.5262C110.967 19.282 111.412 19.0829 111.874 18.9324C112.332 18.7833 112.81 18.7056 113.291 18.7019C113.791 18.6917 114.289 18.7544 114.77 18.8881C115.141 18.9938 115.493 19.1551 115.815 19.3667L114.655 23.2666C114.376 23.1195 114.078 23.0121 113.77 22.9475C113.383 22.862 112.988 22.8233 112.592 22.8323C112.03 22.8249 111.473 22.943 110.962 23.178C110.479 23.4101 110.053 23.746 109.714 24.1618C109.36 24.6237 109.092 25.1464 108.925 25.7041C108.733 26.3056 108.638 26.9339 108.642 27.5654V35.5425H104.294L104.285 19.2426Z" fill="white"/>
<path d="M132.234 31.6249C131.498 32.9314 130.456 34.0388 129.196 34.8512C127.792 35.7045 126.171 36.1324 124.529 36.0832C123.349 36.0942 122.178 35.8713 121.084 35.4273C120.062 35.0216 119.13 34.4194 118.339 33.6546C117.572 32.8657 116.97 31.9316 116.568 30.9069C115.706 28.7137 115.706 26.2753 116.568 24.0821C116.975 23.0573 117.576 22.1212 118.339 21.3255C119.095 20.5326 119.997 19.8944 120.996 19.4465C122.069 18.9694 123.232 18.7306 124.405 18.7462C125.601 18.7269 126.788 18.95 127.895 19.4021C128.868 19.7959 129.743 20.4014 130.454 21.1748C131.126 21.9648 131.635 22.8807 131.95 23.8693C132.314 24.9638 132.493 26.1109 132.482 27.264V27.6629C132.474 27.7839 132.474 27.9053 132.482 28.0263C132.453 28.1454 132.439 28.2673 132.438 28.3897H120.172C120.238 28.994 120.425 29.5788 120.721 30.1092C120.985 30.5694 121.334 30.9754 121.749 31.3058C122.151 31.6197 122.607 31.8571 123.095 32.006C123.581 32.1479 124.085 32.2196 124.591 32.2187C125.466 32.2564 126.33 32.0176 127.062 31.5362C127.709 31.099 128.24 30.5122 128.612 29.8256L132.234 31.6249ZM128.284 25.2963C128.241 24.9614 128.145 24.6353 128.001 24.3302C127.815 23.9594 127.566 23.6235 127.266 23.3375C126.92 23.0085 126.514 22.7497 126.07 22.5753C125.527 22.3606 124.945 22.2581 124.361 22.2739C123.475 22.2576 122.608 22.5384 121.899 23.0716C121.187 23.6376 120.675 24.4174 120.438 25.2963H128.284Z" fill="white"/>
<path d="M135.298 19.2426H139.38V21.3698H139.646C140.156 20.5669 140.859 19.9055 141.692 19.4464C142.58 18.9532 143.581 18.6996 144.596 18.7108C145.705 18.6793 146.796 18.9886 147.723 19.5971C148.507 20.1192 149.122 20.8583 149.494 21.7244C150.037 20.8631 150.774 20.1407 151.646 19.6148C152.552 19.1105 153.559 18.8132 154.594 18.7443C155.629 18.6753 156.667 18.8364 157.632 19.216C158.336 19.5143 158.958 19.9762 159.448 20.5632C159.942 21.1758 160.309 21.8809 160.528 22.6373C160.776 23.5015 160.899 24.3971 160.891 25.2963V35.5425H156.543V26.0674C156.543 23.8398 155.634 22.7289 153.815 22.7348C153.28 22.7261 152.752 22.8575 152.283 23.1159C151.839 23.3744 151.458 23.7287 151.167 24.1529C150.881 24.6345 150.672 25.1578 150.547 25.704C150.382 26.3347 150.298 26.9842 150.3 27.6363V35.5425H145.943V26.0674C145.943 23.8398 144.992 22.7289 143.091 22.7348C142.578 22.7259 142.073 22.8577 141.63 23.1159C141.201 23.3762 140.838 23.7309 140.567 24.1529C140.268 24.6308 140.049 25.1549 139.921 25.704C139.765 26.3363 139.688 26.9852 139.69 27.6363V35.5425H135.342L135.298 19.2426Z" fill="white"/>
<path d="M166.966 17.0533C166.598 17.0517 166.233 16.9763 165.895 16.8317C165.565 16.691 165.264 16.4896 165.009 16.2379C164.755 15.9843 164.553 15.6831 164.416 15.3515C164.269 15.0035 164.194 14.6299 164.194 14.2524C164.194 13.875 164.269 13.5013 164.416 13.1534C164.552 12.8208 164.753 12.5193 165.009 12.267C165.264 12.0124 165.564 11.808 165.895 11.6643C166.408 11.4533 166.972 11.398 167.517 11.5051C168.062 11.6123 168.563 11.8772 168.959 12.267C169.225 12.5234 169.437 12.831 169.582 13.1714C169.727 13.5118 169.801 13.878 169.801 14.248C169.801 14.618 169.727 14.9842 169.582 15.3246C169.437 15.665 169.225 15.9726 168.959 16.229C168.7 16.4943 168.389 16.7041 168.047 16.8458C167.704 16.9875 167.337 17.0581 166.966 17.0533ZM164.805 35.5425V19.2426H169.145V35.5425H164.805Z" fill="white"/>
<path d="M188.406 31.6249C187.673 32.9333 186.63 34.0413 185.368 34.8512C183.951 35.7123 182.314 36.1405 180.657 36.0832C179.48 36.0935 178.312 35.8706 177.221 35.4273C176.199 35.0216 175.266 34.4193 174.476 33.6546C173.709 32.8657 173.107 31.9315 172.705 30.9069C171.854 28.7116 171.854 26.2774 172.705 24.082C173.1 23.0398 173.696 22.0853 174.458 21.2723C175.213 20.4795 176.116 19.8412 177.115 19.3933C178.188 18.9171 179.351 18.6782 180.524 18.6931C181.72 18.6737 182.906 18.8968 184.013 19.3489C184.987 19.7427 185.861 20.3482 186.573 21.1216C187.269 21.9115 187.799 22.834 188.131 23.8339C188.494 24.9283 188.674 26.0754 188.663 27.2286V27.6274C188.655 27.7484 188.655 27.8698 188.663 27.9908C188.649 28.1116 188.649 28.2335 188.663 28.3542H176.344C176.41 28.9585 176.597 29.5434 176.893 30.0737C177.157 30.5339 177.506 30.94 177.921 31.2703C178.323 31.5843 178.779 31.8216 179.267 31.9705C179.753 32.1125 180.257 32.1841 180.763 32.1832C181.641 32.2192 182.507 31.9807 183.243 31.5008C183.883 31.0584 184.41 30.4726 184.784 29.7901L188.406 31.6249ZM184.447 25.2963C184.412 24.9609 184.319 24.6341 184.173 24.3302C183.987 23.9594 183.738 23.6235 183.438 23.3375C183.092 23.0085 182.686 22.7497 182.242 22.5752C181.699 22.3606 181.117 22.2581 180.533 22.2739C179.647 22.259 178.781 22.5396 178.071 23.0716C177.346 23.6323 176.821 24.4127 176.574 25.2963H184.447Z" fill="white"/>
<path d="M191.47 19.2426H195.561V21.5116H195.818C196.012 21.0948 196.275 20.7141 196.597 20.386C196.927 20.0449 197.299 19.7471 197.704 19.4996C198.124 19.2538 198.57 19.0546 199.033 18.9058C199.49 18.7567 199.968 18.679 200.45 18.6753C200.949 18.6657 201.447 18.7284 201.929 18.8614C202.298 18.9689 202.65 19.1302 202.973 19.3401L201.813 23.24C201.534 23.0929 201.236 22.9855 200.928 22.9209C200.541 22.8359 200.146 22.7972 199.75 22.8057C199.188 22.7974 198.631 22.9155 198.121 23.1514C197.637 23.3835 197.211 23.7194 196.872 24.1352C196.524 24.5826 196.254 25.0862 196.075 25.6243C195.883 26.2259 195.787 26.8541 195.791 27.4856V35.5425H191.443L191.47 19.2426Z" fill="white"/>
<path d="M86.3434 44.9644V48.7491H85.139V39.3981H88.336C88.7161 39.3895 89.0941 39.4563 89.4483 39.5948C89.8025 39.7332 90.1257 39.9405 90.3993 40.2047C90.6773 40.4535 90.8998 40.7581 91.0523 41.0986C91.2049 41.4392 91.2842 41.808 91.2849 42.1812C91.2918 42.5569 91.2161 42.9295 91.063 43.2727C90.91 43.6158 90.6834 43.921 90.3993 44.1667C90.1261 44.4309 89.8028 44.6376 89.4484 44.7746C89.0939 44.9116 88.7157 44.9762 88.336 44.9644H86.3434ZM86.3434 40.5326V43.8033H88.3537C88.7937 43.808 89.2177 43.6382 89.533 43.3309C89.8483 43.0236 90.0293 42.6039 90.0363 42.1635C90.027 41.7247 89.845 41.3072 89.53 41.0018C89.2149 40.6965 88.7922 40.5279 88.3537 40.5326H86.3434Z" fill="white"/>
<path d="M92.3654 39.3981H93.5697V42.3496L93.5166 43.236H93.5697C93.7898 42.8991 94.0954 42.6268 94.4553 42.4471C94.8176 42.2421 95.2258 42.1323 95.642 42.128C95.9686 42.1104 96.2952 42.1621 96.6005 42.2797C96.9057 42.3974 97.1826 42.5783 97.4131 42.8105C97.872 43.3387 98.1042 44.0266 98.0596 44.725V48.7491H96.8464V44.9644C96.8464 43.821 96.3416 43.2448 95.3232 43.2448C95.0831 43.2424 94.8458 43.2965 94.6304 43.4027C94.4151 43.509 94.2277 43.6644 94.0834 43.8564C93.7529 44.2546 93.5741 44.757 93.5786 45.2746V48.7491H92.3654V39.3981Z" fill="white"/>
<path d="M101.841 42.1369C102.614 42.0924 103.374 42.3534 103.957 42.8637C104.217 43.1147 104.42 43.4188 104.551 43.7554C104.683 44.0919 104.74 44.4529 104.719 44.8137V48.7491H103.577V47.8627H103.524C103.317 48.2029 103.025 48.4832 102.678 48.6759C102.33 48.8687 101.937 48.9672 101.54 48.9618C100.893 48.975 100.263 48.7512 99.7687 48.3325C99.541 48.1406 99.3592 47.9 99.2366 47.6285C99.114 47.357 99.0538 47.0615 99.0602 46.7637C99.0491 46.459 99.1108 46.1561 99.2401 45.8802C99.3695 45.6042 99.5629 45.3632 99.8041 45.1771C100.389 44.7599 101.097 44.5509 101.814 44.5832C102.429 44.56 103.04 44.6974 103.586 44.9821V44.7073C103.585 44.5033 103.541 44.3017 103.455 44.1166C103.37 43.9314 103.245 43.767 103.09 43.6349C102.767 43.3498 102.351 43.1923 101.921 43.1917C101.601 43.1883 101.286 43.2682 101.006 43.4236C100.727 43.579 100.493 43.8045 100.327 44.078L99.2639 43.4133C99.5496 42.9987 99.9361 42.6639 100.387 42.4406C100.838 42.2173 101.338 42.1127 101.841 42.1369ZM100.291 46.808C100.29 46.9605 100.326 47.111 100.395 47.2468C100.464 47.3826 100.566 47.4996 100.69 47.588C100.956 47.7999 101.288 47.9127 101.628 47.907C101.881 47.907 102.13 47.8568 102.363 47.7594C102.595 47.6621 102.806 47.5194 102.983 47.3398C103.17 47.1738 103.319 46.9704 103.421 46.7429C103.523 46.5153 103.576 46.2687 103.577 46.0191C103.115 45.7002 102.56 45.5442 102 45.576C101.567 45.5603 101.139 45.6812 100.778 45.9216C100.628 46.0164 100.503 46.1469 100.415 46.3015C100.327 46.4561 100.278 46.6301 100.273 46.808H100.291Z" fill="white"/>
<path d="M107.27 48.7491H106.065V42.3497H107.216V43.431H107.27C107.414 43.0592 107.679 42.7469 108.022 42.5446C108.356 42.3222 108.746 42.1993 109.147 42.1901C109.449 42.1843 109.749 42.2354 110.033 42.3408L109.669 43.5108C109.44 43.4393 109.2 43.4093 108.961 43.4221C108.735 43.4217 108.512 43.4706 108.307 43.5655C108.102 43.6604 107.92 43.7991 107.774 43.9717C107.45 44.3172 107.269 44.7737 107.27 45.248V48.7491Z" fill="white"/>
<path d="M112.025 48.7491H110.821V42.3496H111.972V43.236H112.025C112.24 42.8946 112.547 42.6211 112.911 42.4471C113.269 42.2324 113.679 42.119 114.097 42.119C114.515 42.119 114.925 42.2324 115.284 42.4471C115.635 42.6501 115.911 42.9609 116.072 43.3335C116.299 42.9498 116.623 42.6334 117.012 42.4169C117.401 42.2004 117.841 42.0915 118.286 42.1015C118.604 42.0829 118.921 42.1344 119.217 42.2524C119.512 42.3703 119.778 42.5518 119.995 42.784C120.426 43.3355 120.641 44.0261 120.597 44.7251V48.7491H119.393V44.9466C119.434 44.4878 119.319 44.0285 119.065 43.6437C118.924 43.4995 118.751 43.3888 118.561 43.3198C118.371 43.2507 118.168 43.2251 117.967 43.2449C117.74 43.2449 117.517 43.2977 117.314 43.3993C117.111 43.5008 116.934 43.6482 116.798 43.8298C116.487 44.2261 116.321 44.7174 116.329 45.2214V48.7668H115.125V44.9466C115.166 44.4878 115.05 44.0285 114.797 43.6437C114.656 43.4984 114.484 43.387 114.294 43.3179C114.103 43.2488 113.9 43.2239 113.699 43.2449C113.473 43.2441 113.25 43.2968 113.049 43.3984C112.847 43.5 112.672 43.6479 112.539 43.8298C112.212 44.2135 112.03 44.6997 112.025 45.2037V48.7491Z" fill="white"/>
<path d="M124.335 42.1369C125.105 42.0919 125.863 42.3531 126.442 42.8637C126.703 43.1142 126.907 43.4181 127.04 43.7546C127.173 44.0911 127.232 44.4523 127.213 44.8137V48.7491H126.061V47.8627H126.008C125.802 48.2028 125.51 48.4831 125.162 48.6759C124.814 48.8687 124.422 48.9672 124.025 48.9618C123.377 48.975 122.747 48.7512 122.253 48.3325C122.028 48.1389 121.847 47.8981 121.725 47.627C121.602 47.3559 121.541 47.0611 121.545 46.7636C121.533 46.458 121.596 46.1542 121.727 45.8779C121.858 45.6017 122.054 45.3612 122.298 45.1771C122.881 44.7574 123.59 44.5481 124.308 44.5832C124.923 44.5599 125.533 44.6974 126.079 44.9821V44.7073C126.079 44.5033 126.034 44.3017 125.949 44.1165C125.863 43.9314 125.738 43.767 125.583 43.6348C125.266 43.3468 124.852 43.1886 124.423 43.1917C124.102 43.1876 123.785 43.2671 123.504 43.4225C123.223 43.5779 122.988 43.8038 122.82 44.078L121.757 43.4133C122.043 42.9987 122.43 42.6639 122.881 42.4406C123.332 42.2172 123.832 42.1127 124.335 42.1369ZM122.776 46.808C122.775 46.9605 122.81 47.111 122.88 47.2468C122.949 47.3825 123.05 47.4996 123.174 47.5879C123.441 47.7999 123.773 47.9127 124.113 47.907C124.365 47.907 124.615 47.8568 124.847 47.7594C125.08 47.662 125.291 47.5194 125.468 47.3398C125.654 47.1738 125.803 46.9704 125.906 46.7428C126.008 46.5153 126.061 46.2686 126.061 46.0191C125.604 45.6989 125.051 45.5428 124.494 45.5759C124.058 45.5602 123.627 45.6811 123.263 45.9216C123.116 46.0184 122.994 46.1498 122.909 46.3043C122.825 46.4588 122.779 46.6317 122.776 46.808Z" fill="white"/>
<path d="M131.437 48.9795C130.996 48.9936 130.558 48.914 130.15 48.7459C129.742 48.5778 129.375 48.3252 129.072 48.0045C128.473 47.3309 128.142 46.4603 128.142 45.5582C128.142 44.6562 128.473 43.7856 129.072 43.1119C129.377 42.7931 129.744 42.5416 130.151 42.3737C130.559 42.2058 130.996 42.1251 131.437 42.1369C132.046 42.1261 132.645 42.2991 133.155 42.6333C133.643 42.9704 134.025 43.4412 134.253 43.9894L133.155 44.4414C133.033 44.1369 132.835 43.869 132.58 43.6635C132.325 43.458 132.021 43.322 131.697 43.2685C131.374 43.215 131.042 43.2459 130.735 43.3583C130.427 43.4706 130.153 43.6605 129.94 43.9096C129.557 44.3749 129.347 44.9594 129.347 45.5627C129.347 46.1659 129.557 46.7504 129.94 47.2157C130.113 47.4243 130.329 47.5921 130.574 47.707C130.819 47.8219 131.087 47.8812 131.357 47.8805C131.755 47.903 132.149 47.7983 132.484 47.5816C132.818 47.3649 133.075 47.0474 133.217 46.675L134.288 47.1359C134.072 47.6912 133.684 48.163 133.181 48.4832C132.662 48.819 132.055 48.9919 131.437 48.9795Z" fill="white"/>
<path d="M138.15 48.9795C137.714 48.9931 137.281 48.913 136.879 48.7449C136.478 48.5767 136.116 48.3242 135.82 48.0045C135.214 47.3381 134.896 46.4587 134.935 45.5582C134.905 44.6618 135.222 43.7884 135.82 43.1208C136.113 42.8147 136.464 42.5702 136.852 42.4015C137.24 42.2328 137.658 42.1433 138.081 42.1384C138.504 42.1334 138.924 42.2131 139.316 42.3726C139.708 42.5322 140.064 42.7684 140.363 43.0676C140.964 43.7877 141.265 44.711 141.205 45.6468V45.7798H136.175C136.169 46.0627 136.221 46.3438 136.328 46.6059C136.434 46.8681 136.593 47.1057 136.795 47.3043C137.026 47.5286 137.307 47.6947 137.615 47.7891C137.923 47.8835 138.249 47.9033 138.567 47.8471C138.884 47.7909 139.183 47.6601 139.44 47.4656C139.697 47.2711 139.904 47.0184 140.045 46.7282L141.116 47.2511C140.843 47.7765 140.429 48.2154 139.921 48.5186C139.385 48.8357 138.771 48.9954 138.15 48.9795ZM136.228 44.7871H139.921C139.907 44.5764 139.852 44.3706 139.757 44.1819C139.663 43.9931 139.532 43.8251 139.372 43.688C139.009 43.3746 138.539 43.2156 138.061 43.2448C137.633 43.2331 137.216 43.3817 136.892 43.6614C136.551 43.9513 136.317 44.3478 136.228 44.7871Z" fill="white"/>
<path d="M147.891 48.7491H146.731V47.8627H146.686C146.481 48.1933 146.19 48.4626 145.845 48.6427C145.37 48.9023 144.825 49.0077 144.288 48.9442C143.75 48.8807 143.245 48.6514 142.843 48.2882C142.388 47.7551 142.162 47.0638 142.214 46.3648V42.3497H143.463V46.3116C143.442 46.5204 143.468 46.7312 143.539 46.9288C143.609 47.1264 143.723 47.3059 143.871 47.4543C144.019 47.6027 144.199 47.7163 144.396 47.7869C144.593 47.8575 144.804 47.8834 145.013 47.8627C145.245 47.8655 145.475 47.8141 145.684 47.7125C145.893 47.611 146.075 47.4621 146.217 47.2777C146.54 46.8868 146.713 46.3933 146.704 45.8862V42.3408H147.891V48.7491Z" fill="white"/>
<path d="M151.973 48.8731C151.73 48.8818 151.488 48.8403 151.262 48.7512C151.035 48.662 150.83 48.5272 150.658 48.3551C150.486 48.1829 150.351 47.9772 150.262 47.7507C150.173 47.5241 150.131 47.2817 150.14 47.0384V43.431H149.015V42.3496H150.14V40.3908H151.344V42.3496H152.912V43.431H151.344V46.6307C151.325 46.7875 151.337 46.9466 151.38 47.0987C151.422 47.2508 151.495 47.393 151.592 47.517C151.745 47.6638 151.948 47.7463 152.159 47.7475C152.25 47.7605 152.343 47.7605 152.434 47.7475C152.522 47.7316 152.609 47.7048 152.691 47.6677L153.071 48.7402C152.716 48.8484 152.344 48.8934 151.973 48.8731Z" fill="white"/>
<path d="M155.693 40.1426C155.693 40.3777 155.599 40.6032 155.433 40.7694C155.267 40.9356 155.042 41.029 154.807 41.029C154.694 41.0307 154.582 41.0087 154.479 40.9644C154.375 40.9201 154.282 40.8546 154.205 40.7719C154.056 40.6085 153.973 40.3951 153.973 40.1737C153.973 39.9522 154.056 39.7388 154.205 39.5754C154.282 39.4927 154.375 39.4272 154.479 39.3829C154.582 39.3386 154.694 39.3166 154.807 39.3183C155.042 39.3183 155.267 39.4117 155.433 39.5779C155.599 39.7442 155.693 39.9696 155.693 40.2047V40.1426ZM155.445 42.3496V48.7491H154.24V42.3496H155.445Z" fill="white"/>
<path d="M159.873 48.9795C159.432 48.9924 158.994 48.9123 158.587 48.7443C158.179 48.5763 157.812 48.3242 157.508 48.0045C156.909 47.3309 156.578 46.4603 156.578 45.5582C156.578 44.6562 156.909 43.7855 157.508 43.1119C157.813 42.7935 158.18 42.5423 158.587 42.3744C158.995 42.2066 159.432 42.1256 159.873 42.1369C160.475 42.1208 161.068 42.2897 161.571 42.6209C162.075 42.9521 162.465 43.4297 162.689 43.9894L161.591 44.4414C161.466 44.0762 161.225 43.7617 160.906 43.5457C160.586 43.3297 160.205 43.2241 159.819 43.2449C159.548 43.2447 159.279 43.3041 159.033 43.4189C158.787 43.5338 158.568 43.7013 158.394 43.9096C158.021 44.3798 157.818 44.9624 157.818 45.5626C157.818 46.1629 158.021 46.7455 158.394 47.2157C158.568 47.424 158.787 47.5915 159.033 47.7064C159.279 47.8212 159.548 47.8806 159.819 47.8804C160.217 47.9016 160.611 47.7963 160.945 47.5798C161.279 47.3633 161.536 47.0466 161.679 46.675L162.751 47.1359C162.534 47.6887 162.15 48.1598 161.653 48.4832C161.122 48.8228 160.502 48.9957 159.873 48.9795Z" fill="white"/>
<path d="M166.142 42.1369C166.913 42.0938 167.67 42.3548 168.25 42.8637C168.511 43.1142 168.715 43.4181 168.848 43.7546C168.981 44.0911 169.04 44.4523 169.021 44.8137V48.7491H167.869V47.8627H167.816C167.61 48.2029 167.318 48.4832 166.97 48.6759C166.622 48.8687 166.23 48.9672 165.832 48.9618C165.185 48.975 164.555 48.7512 164.061 48.3325C163.836 48.1389 163.655 47.8981 163.533 47.627C163.41 47.3559 163.349 47.0611 163.353 46.7637C163.345 46.4632 163.408 46.1651 163.537 45.8939C163.666 45.6227 163.858 45.3861 164.097 45.2037C164.681 44.784 165.389 44.5747 166.107 44.6098C166.722 44.5865 167.332 44.724 167.878 45.0087V44.7339C167.878 44.5299 167.834 44.3283 167.748 44.1431C167.662 43.958 167.538 43.7936 167.382 43.6614C167.059 43.3764 166.644 43.2189 166.213 43.2183C165.894 43.2157 165.579 43.296 165.3 43.4513C165.02 43.6067 164.786 43.8317 164.619 44.1046L163.557 43.431C163.84 43.0112 164.227 42.6717 164.68 42.445C165.133 42.2184 165.637 42.1123 166.142 42.1369ZM164.584 46.808C164.583 46.9605 164.618 47.111 164.688 47.2468C164.757 47.3826 164.858 47.4996 164.982 47.588C165.249 47.7999 165.581 47.9127 165.921 47.907C166.173 47.907 166.423 47.8568 166.655 47.7594C166.888 47.6621 167.099 47.5194 167.276 47.3398C167.462 47.1738 167.611 46.9704 167.714 46.7429C167.816 46.5153 167.869 46.2687 167.869 46.0191C167.408 45.7002 166.853 45.5442 166.293 45.5759C165.862 45.5616 165.438 45.6825 165.08 45.9216C164.93 46.0162 164.806 46.1469 164.719 46.3017C164.633 46.4565 164.586 46.6306 164.584 46.808Z" fill="white"/>
<path d="M171.58 39.3981V48.7491H170.375V39.3981H171.58Z" fill="white"/>
<path d="M177.885 46.9764C177.883 47.2531 177.816 47.5255 177.69 47.7717C177.564 48.018 177.382 48.2313 177.159 48.3945C176.625 48.7917 175.973 48.995 175.308 48.9707C174.705 48.9831 174.114 48.8065 173.617 48.4655C173.135 48.1433 172.767 47.6784 172.563 47.1359L173.643 46.675C173.78 47.0303 174.017 47.3382 174.325 47.5614C174.611 47.7689 174.955 47.8805 175.308 47.8805C175.65 47.8936 175.988 47.8074 176.282 47.6323C176.39 47.5734 176.48 47.4878 176.546 47.3839C176.611 47.2799 176.648 47.161 176.654 47.0384C176.654 46.6307 176.344 46.3294 175.715 46.1521L174.617 45.8773C173.369 45.5671 172.749 44.991 172.749 44.1046C172.742 43.8286 172.805 43.5554 172.93 43.3094C173.055 43.0634 173.239 42.8524 173.466 42.6953C173.961 42.3707 174.536 42.1876 175.127 42.1657C175.719 42.1439 176.305 42.2841 176.822 42.5712C177.256 42.8175 177.596 43.201 177.788 43.6614L176.707 44.1046C176.581 43.8348 176.374 43.6116 176.114 43.4665C175.843 43.317 175.538 43.2378 175.228 43.236C174.916 43.2282 174.609 43.3114 174.343 43.4753C174.235 43.5292 174.144 43.6111 174.078 43.7124C174.013 43.8138 173.976 43.9309 173.971 44.0514C173.971 44.4237 174.316 44.6896 174.998 44.8403L175.972 45.0885C177.256 45.3721 177.885 46.0191 177.885 46.9764Z" fill="white"/>
</g>
<defs>
<clipPath id="clip0">
<rect width="203" height="61.9822" fill="white"/>
</clipPath>
</defs>
</svg>
