<svg width="44" height="20" viewBox="0 0 44 20" fill="none" xmlns="http://www.w3.org/2000/svg">
<rect opacity="0.1" width="44" height="20" rx="8" fill="white"/>
<path d="M24.9219 14.9981H19.2297V4.71521H24.922L24.9219 14.9981Z" fill="#FF5F00"/>
<path d="M19.5906 9.85682C19.5906 7.77094 20.5621 5.91283 22.0751 4.71538C20.9299 3.80764 19.5134 3.31498 18.055 3.31715C14.4623 3.31715 11.55 6.24501 11.55 9.85682C11.55 13.4686 14.4623 16.3965 18.055 16.3965C19.5134 16.3987 20.93 15.906 22.0752 14.9983C20.5624 13.801 19.5906 11.9428 19.5906 9.85682Z" fill="#EB001B"/>
<path d="M32.6011 9.85682C32.6011 13.4686 29.6889 16.3965 26.0962 16.3965C24.6376 16.3986 23.2209 15.906 22.0754 14.9983C23.5888 13.8008 24.5604 11.9428 24.5604 9.85682C24.5604 7.77084 23.5888 5.91283 22.0754 4.71538C23.2209 3.80767 24.6375 3.31502 26.0961 3.31715C29.6888 3.31715 32.601 6.24501 32.601 9.85682" fill="#F79E1B"/>
</svg>
