<svg width="32" height="38" viewBox="0 0 32 38" fill="none" xmlns="http://www.w3.org/2000/svg">
<path d="M31.75 30.25V32H0.25V30.25L3.75 26.75V16.25C3.75 10.825 7.3025 6.0475 12.5 4.5075V4C12.5 3.07174 12.8687 2.1815 13.5251 1.52513C14.1815 0.868749 15.0717 0.5 16 0.5C16.9283 0.5 17.8185 0.868749 18.4749 1.52513C19.1313 2.1815 19.5 3.07174 19.5 4V4.5075C24.6975 6.0475 28.25 10.825 28.25 16.25V26.75L31.75 30.25ZM19.5 33.75C19.5 34.6783 19.1313 35.5685 18.4749 36.2249C17.8185 36.8812 16.9283 37.25 16 37.25C15.0717 37.25 14.1815 36.8812 13.5251 36.2249C12.8687 35.5685 12.5 34.6783 12.5 33.75" fill="white"/>
</svg>
