<svg width="4" height="14" viewBox="0 0 4 14" fill="none" xmlns="http://www.w3.org/2000/svg">
<path fill-rule="evenodd" clip-rule="evenodd" d="M2.09196 3.66671C3.00863 3.66671 3.75863 2.91671 3.75863 2.00004C3.75863 1.08337 3.00863 0.333374 2.09196 0.333374C1.17529 0.333374 0.425293 1.08337 0.425293 2.00004C0.425293 2.91671 1.17529 3.66671 2.09196 3.66671ZM2.09196 5.33337C1.17529 5.33337 0.425293 6.08337 0.425293 7.00004C0.425293 7.91671 1.17529 8.66671 2.09196 8.66671C3.00863 8.66671 3.75863 7.91671 3.75863 7.00004C3.75863 6.08337 3.00863 5.33337 2.09196 5.33337ZM2.09196 10.3334C1.17529 10.3334 0.425293 11.0834 0.425293 12C0.425293 12.9167 1.17529 13.6667 2.09196 13.6667C3.00863 13.6667 3.75863 12.9167 3.75863 12C3.75863 11.0834 3.00863 10.3334 2.09196 10.3334Z" fill="#0D1834"/>
</svg>
