<svg width="45" height="21" viewBox="0 0 45 21" fill="none" xmlns="http://www.w3.org/2000/svg">
<rect opacity="0.1" y="0.0483398" width="45" height="20" rx="8" fill="#F9FAFB"/>
<path d="M26.2235 4.32945C25.6237 3.65748 24.5394 3.36938 23.1523 3.36938H19.1265C18.843 3.3694 18.6015 3.57202 18.5571 3.84724L16.8808 14.2965C16.8475 14.5025 17.0098 14.6891 17.2223 14.6891H19.7077L20.3319 10.7978L20.3125 10.9197C20.357 10.6446 20.5963 10.4417 20.8798 10.4417H22.0608C24.381 10.4417 26.1977 9.51547 26.7284 6.836C26.7442 6.75675 26.7578 6.67962 26.7696 6.60426C26.7026 6.5694 26.7026 6.5694 26.7696 6.60426C26.9276 5.61391 26.7685 4.93978 26.2235 4.32945Z" fill="#27346A"/>
<path d="M21.2829 6.2475C21.3508 6.2157 21.4252 6.19922 21.5004 6.19927H24.6566C25.0303 6.19927 25.3789 6.22317 25.6975 6.27357C25.7866 6.28754 25.8753 6.30421 25.9634 6.32358C26.0882 6.35066 26.2116 6.3838 26.3331 6.42288C26.4897 6.47429 26.6356 6.53416 26.7696 6.60426C26.9276 5.61353 26.7685 4.93978 26.2235 4.32945C25.6233 3.65748 24.5394 3.36938 23.1523 3.36938H19.1261C18.8427 3.36938 18.6015 3.57222 18.5571 3.84724L16.8808 14.2961C16.8475 14.5025 17.0098 14.6888 17.222 14.6888H19.7077L21.0027 6.6173C21.0285 6.45624 21.1333 6.31798 21.2829 6.2475Z" fill="#27346A"/>
<path d="M26.7284 6.83598C26.1977 9.51507 24.381 10.4417 22.0608 10.4417H20.8794C20.596 10.4417 20.3566 10.6446 20.3125 10.9196L19.536 15.758C19.507 15.9384 19.6489 16.1018 19.8345 16.1018H21.9296C22.1776 16.1017 22.3886 15.9244 22.4274 15.6837L22.4478 15.5788L22.8427 13.1191L22.8681 12.9831C22.9068 12.7424 23.1179 12.5652 23.3658 12.5651H23.6794C25.7089 12.5651 27.2981 11.7547 27.7625 9.41086C27.9564 8.43138 27.8561 7.6136 27.3433 7.0392C27.1877 6.86522 26.9946 6.72153 26.7696 6.60425C26.7574 6.67998 26.7442 6.75673 26.7284 6.83598Z" fill="#2790C3"/>
<path d="M26.2142 6.38661C26.1315 6.36286 26.0479 6.34184 25.9638 6.32357C25.8756 6.30452 25.7869 6.28796 25.6978 6.2739C25.379 6.22317 25.0306 6.19922 24.6565 6.19922H21.5008C21.4254 6.19905 21.3511 6.21567 21.2832 6.24783C21.1335 6.3181 21.0286 6.45647 21.003 6.61763L20.3322 10.7978L20.3129 10.9197C20.357 10.6446 20.5963 10.4417 20.8798 10.4417H22.0612C24.3814 10.4417 26.1981 9.51546 26.7288 6.83599C26.7445 6.75674 26.7578 6.67995 26.77 6.60426C26.6356 6.53453 26.4901 6.47428 26.3335 6.42321C26.294 6.41033 26.2542 6.39813 26.2142 6.38661" fill="#1F264F"/>
</svg>
