<svg width="203" height="62" viewBox="0 0 203 62" fill="none" xmlns="http://www.w3.org/2000/svg">
<g clip-path="url(#clip0)">
<path d="M12.6372 28.2126H9.59967C6.42932 28.2126 4.03827 27.5212 2.42653 26.1385C1.60424 25.4027 0.958858 24.4903 0.538661 23.4696C0.118464 22.4489 -0.0656629 21.3463 5.74691e-05 20.2443C-0.0628508 19.1348 0.122321 18.0252 0.542084 16.9963C0.961846 15.9674 1.60563 15.0453 2.42653 14.2969C4.03827 12.8965 6.42932 12.1963 9.59967 12.1963H28.0993V28.2126H12.6372Z" fill="url(#paint0_linear)"/>
<path d="M68.8446 9.49307C66.7805 6.37643 63.8496 3.93298 60.4139 2.46434C56.3416 0.739347 51.9497 -0.100522 47.5288 0.000300623H28.0994V12.1964H46.5901C49.7605 12.1964 52.1604 12.8966 53.7721 14.2971C54.5914 15.0462 55.2336 15.9688 55.6518 16.9976C56.07 18.0264 56.2538 19.1356 56.1898 20.2445C56.2566 21.3458 56.0738 22.4479 55.6552 23.4686C55.2365 24.4893 54.5928 25.402 53.7721 26.1387C52.1604 27.5214 49.7605 28.2127 46.5901 28.2127H28.0994V44.9469V61.9825C28.0994 61.9825 43.5526 61.371 43.5526 49.9991V44.9469V40.4089H47.5288C51.9497 40.5097 56.3416 39.6698 60.4139 37.9448C63.8401 36.4778 66.7684 34.0488 68.8446 30.9515C70.8702 27.7549 71.9027 24.0287 71.8113 20.2445C71.8998 16.4467 70.8679 12.7071 68.8446 9.49307Z" fill="url(#paint1_linear)"/>
<path d="M85.1392 35.5429V11.7268H93.5167C94.5977 11.7193 95.6714 11.9055 96.687 12.2763C97.639 12.6158 98.5147 13.1399 99.2641 13.8186C100.012 14.4828 100.615 15.2945 101.035 16.2028C101.468 17.1572 101.685 18.1951 101.673 19.243C101.687 20.2687 101.484 21.2857 101.076 22.2269C100.668 23.1681 100.066 24.012 99.3083 24.7029C98.5571 25.3812 97.6821 25.9079 96.7313 26.254C95.7152 26.6218 94.6415 26.8049 93.561 26.7947H89.6733V35.5429H85.1392ZM93.5787 22.5402C94.0673 22.5735 94.5575 22.5013 95.0158 22.3285C95.4742 22.1557 95.8901 21.8863 96.2354 21.5386C96.8116 20.914 97.1283 20.0931 97.121 19.243C97.1209 18.8232 97.049 18.4065 96.9084 18.011C96.7621 17.6178 96.5325 17.261 96.2354 16.9651C95.9155 16.6531 95.536 16.4089 95.1196 16.2471C94.6218 16.0597 94.0927 15.9694 93.561 15.9812H89.6113V22.5402H93.5787Z" fill="black"/>
<path d="M104.285 19.2429H108.368V21.512H108.633C108.838 21.1026 109.11 20.7309 109.439 20.4129C109.769 20.0718 110.141 19.774 110.546 19.5266C110.967 19.2823 111.412 19.0832 111.875 18.9327C112.332 18.7836 112.81 18.7059 113.291 18.7023C113.791 18.692 114.289 18.7547 114.77 18.8884C115.141 18.9941 115.493 19.1555 115.815 19.367L114.655 23.2669C114.376 23.1198 114.078 23.0124 113.77 22.9479C113.383 22.8624 112.988 22.8237 112.592 22.8326C112.03 22.8252 111.473 22.9433 110.962 23.1783C110.479 23.4104 110.053 23.7464 109.714 24.1622C109.36 24.6241 109.093 25.1467 108.926 25.7044C108.734 26.306 108.638 26.9342 108.642 27.5657V35.5428H104.294L104.285 19.2429Z" fill="black"/>
<path d="M132.234 31.6249C131.498 32.9314 130.456 34.0388 129.196 34.8512C127.792 35.7045 126.171 36.1324 124.529 36.0832C123.349 36.0942 122.178 35.8713 121.085 35.4273C120.063 35.0216 119.13 34.4194 118.339 33.6546C117.572 32.8657 116.97 31.9316 116.568 30.9069C115.706 28.7137 115.706 26.2753 116.568 24.0821C116.975 23.0574 117.577 22.1213 118.339 21.3255C119.095 20.5327 119.997 19.8945 120.996 19.4465C122.069 18.9695 123.232 18.7306 124.405 18.7463C125.601 18.7269 126.788 18.9501 127.895 19.4022C128.868 19.7959 129.743 20.4014 130.454 21.1749C131.126 21.9648 131.635 22.8808 131.951 23.8694C132.314 24.9638 132.493 26.1109 132.482 27.2641V27.6629C132.474 27.7839 132.474 27.9053 132.482 28.0263C132.454 28.1454 132.439 28.2673 132.438 28.3897H120.172C120.238 28.994 120.425 29.5788 120.722 30.1092C120.985 30.5694 121.334 30.9755 121.749 31.3058C122.151 31.6198 122.607 31.8571 123.095 32.006C123.581 32.148 124.085 32.2196 124.591 32.2187C125.466 32.2564 126.331 32.0177 127.062 31.5363C127.709 31.099 128.24 30.5122 128.612 29.8256L132.234 31.6249ZM128.284 25.2964C128.241 24.9614 128.146 24.6354 128.001 24.3303C127.815 23.9594 127.566 23.6236 127.266 23.3376C126.92 23.0086 126.514 22.7497 126.07 22.5753C125.527 22.3607 124.945 22.2582 124.361 22.2739C123.475 22.2577 122.608 22.5384 121.899 23.0716C121.187 23.6377 120.675 24.4174 120.438 25.2964H128.284Z" fill="black"/>
<path d="M135.298 19.243H139.38V21.3702H139.646C140.156 20.5673 140.859 19.9058 141.692 19.4468C142.58 18.9536 143.581 18.7 144.596 18.7112C145.704 18.6797 146.796 18.989 147.722 19.5975C148.507 20.1196 149.122 20.8587 149.494 21.7247C150.037 20.8635 150.774 20.1411 151.646 19.6152C152.552 19.1109 153.559 18.8136 154.594 18.7447C155.629 18.6757 156.667 18.8368 157.632 19.2164C158.336 19.5147 158.958 19.9766 159.447 20.5636C159.942 21.1762 160.309 21.8813 160.528 22.6377C160.776 23.5019 160.899 24.3975 160.891 25.2967V35.5429H156.543V26.0678C156.543 23.8402 155.634 22.7293 153.815 22.7352C153.28 22.7265 152.752 22.8579 152.283 23.1163C151.839 23.3748 151.458 23.7291 151.167 24.1533C150.881 24.6348 150.672 25.1582 150.547 25.7044C150.382 26.3351 150.298 26.9846 150.299 27.6367V35.5429H145.942V26.0678C145.942 23.8402 144.992 22.7293 143.091 22.7352C142.578 22.7263 142.073 22.8581 141.63 23.1163C141.201 23.3766 140.838 23.7313 140.567 24.1533C140.268 24.6312 140.049 25.1553 139.921 25.7044C139.765 26.3367 139.688 26.9856 139.69 27.6367V35.5429H135.342L135.298 19.243Z" fill="black"/>
<path d="M166.966 17.0535C166.598 17.0519 166.233 16.9766 165.895 16.832C165.565 16.6913 165.264 16.4898 165.009 16.2381C164.755 15.9846 164.553 15.6834 164.416 15.3518C164.27 15.0038 164.194 14.6301 164.194 14.2527C164.194 13.8752 164.27 13.5016 164.416 13.1536C164.552 12.8211 164.753 12.5196 165.009 12.2673C165.264 12.0127 165.564 11.8082 165.895 11.6646C166.408 11.4536 166.972 11.3982 167.517 11.5054C168.062 11.6125 168.563 11.8775 168.959 12.2673C169.225 12.5237 169.437 12.8313 169.582 13.1717C169.727 13.5121 169.802 13.8783 169.802 14.2483C169.802 14.6182 169.727 14.9844 169.582 15.3248C169.437 15.6652 169.225 15.9728 168.959 16.2292C168.7 16.4945 168.389 16.7044 168.047 16.8461C167.704 16.9878 167.337 17.0584 166.966 17.0535ZM164.805 35.5427V19.2428H169.145V35.5427H164.805Z" fill="black"/>
<path d="M188.406 31.6253C187.673 32.9338 186.63 34.0418 185.368 34.8516C183.951 35.7128 182.314 36.141 180.657 36.0837C179.48 36.094 178.312 35.8711 177.221 35.4278C176.199 35.0221 175.266 34.4198 174.476 33.6551C173.709 32.8661 173.107 31.932 172.705 30.9074C171.854 28.7121 171.854 26.2779 172.705 24.0825C173.1 23.0403 173.696 22.0858 174.458 21.2728C175.214 20.4799 176.116 19.8417 177.115 19.3938C178.188 18.9175 179.351 18.6787 180.524 18.6935C181.72 18.6742 182.907 18.8973 184.013 19.3494C184.987 19.7432 185.862 20.3487 186.573 21.1221C187.269 21.912 187.8 22.8345 188.131 23.8344C188.495 24.9288 188.674 26.0759 188.663 27.2291V27.6279C188.655 27.7489 188.655 27.8703 188.663 27.9913C188.649 28.1121 188.649 28.234 188.663 28.3547H176.344C176.41 28.959 176.597 29.5438 176.893 30.0742C177.157 30.5344 177.506 30.9404 177.921 31.2708C178.323 31.5848 178.779 31.8221 179.267 31.971C179.753 32.1129 180.257 32.1846 180.763 32.1837C181.641 32.2197 182.507 31.9812 183.243 31.5013C183.883 31.0588 184.41 30.4731 184.784 29.7906L188.406 31.6253ZM184.447 25.2968C184.412 24.9614 184.319 24.6346 184.173 24.3307C183.987 23.9599 183.738 23.624 183.438 23.338C183.092 23.009 182.686 22.7502 182.242 22.5757C181.699 22.3611 181.117 22.2586 180.533 22.2744C179.647 22.2595 178.781 22.5401 178.071 23.0721C177.346 23.6328 176.821 24.4131 176.575 25.2968H184.447Z" fill="black"/>
<path d="M191.47 19.243H195.561V21.5121H195.818C196.012 21.0952 196.276 20.7145 196.597 20.3864C196.927 20.0453 197.299 19.7475 197.704 19.5001C198.124 19.2542 198.57 19.0551 199.033 18.9062C199.49 18.7571 199.968 18.6794 200.45 18.6758C200.949 18.6661 201.447 18.7288 201.929 18.8619C202.298 18.9694 202.651 19.1306 202.974 19.3405L201.813 23.2405C201.535 23.0933 201.236 22.9859 200.928 22.9214C200.541 22.8364 200.146 22.7977 199.75 22.8061C199.188 22.7978 198.631 22.9159 198.121 23.1518C197.637 23.384 197.211 23.7199 196.872 24.1357C196.524 24.5831 196.254 25.0866 196.075 25.6247C195.883 26.2263 195.787 26.8545 195.792 27.4861V35.5429H191.443L191.47 19.243Z" fill="black"/>
<path d="M86.3435 44.9645V48.7492H85.1392V39.3982H88.3361C88.7162 39.3896 89.0943 39.4564 89.4484 39.5948C89.8026 39.7333 90.1258 39.9406 90.3995 40.2048C90.6774 40.4536 90.8999 40.7582 91.0525 41.0987C91.205 41.4392 91.2843 41.8081 91.285 42.1813C91.292 42.557 91.2162 42.9296 91.0632 43.2727C90.9101 43.6159 90.6835 43.9211 90.3995 44.1667C90.1262 44.431 89.8029 44.6377 89.4485 44.7747C89.0941 44.9117 88.7158 44.9762 88.3361 44.9645H86.3435ZM86.3435 40.5327V43.8033H88.3538C88.7938 43.8081 89.2179 43.6383 89.5332 43.331C89.8485 43.0237 90.0294 42.604 90.0364 42.1636C90.0271 41.7248 89.8451 41.3073 89.5301 41.0019C89.215 40.6966 88.7923 40.528 88.3538 40.5327H86.3435Z" fill="black"/>
<path d="M92.3655 39.3984H93.5699V42.35L93.5167 43.2363H93.5699C93.7899 42.8994 94.0956 42.6271 94.4554 42.4475C94.8177 42.2424 95.226 42.1326 95.6421 42.1284C95.9687 42.1108 96.2953 42.1625 96.6006 42.2801C96.9058 42.3977 97.1828 42.5786 97.4132 42.8109C97.8721 43.339 98.1044 44.0269 98.0597 44.7254V48.7494H96.8465V44.9647C96.8465 43.8213 96.3417 43.2452 95.3233 43.2452C95.0832 43.2428 94.8459 43.2968 94.6306 43.4031C94.4152 43.5093 94.2278 43.6647 94.0835 43.8568C93.753 44.2549 93.5742 44.7573 93.5787 45.2749V48.7494H92.3655V39.3984Z" fill="black"/>
<path d="M101.841 42.1377C102.614 42.0932 103.374 42.3542 103.958 42.8645C104.217 43.1154 104.42 43.4196 104.551 43.7561C104.683 44.0927 104.74 44.4537 104.719 44.8145V48.7498H103.577V47.8635H103.524C103.317 48.2036 103.026 48.4839 102.678 48.6767C102.33 48.8694 101.938 48.968 101.54 48.9626C100.893 48.9758 100.263 48.752 99.7688 48.3333C99.5412 48.1413 99.3593 47.9008 99.2367 47.6293C99.1141 47.3578 99.0539 47.0623 99.0604 46.7644C99.0492 46.4598 99.1109 46.1569 99.2403 45.8809C99.3697 45.605 99.563 45.3639 99.8042 45.1779C100.389 44.7607 101.097 44.5516 101.815 44.584C102.429 44.5607 103.04 44.6982 103.586 44.9829V44.7081C103.585 44.5041 103.541 44.3025 103.455 44.1173C103.37 43.9321 103.245 43.7678 103.09 43.6356C102.767 43.3506 102.351 43.1931 101.921 43.1924C101.601 43.189 101.286 43.2689 101.006 43.4243C100.727 43.5798 100.493 43.8053 100.327 44.0788L99.264 43.414C99.5497 42.9995 99.9362 42.6647 100.387 42.4414C100.838 42.218 101.339 42.1135 101.841 42.1377ZM100.291 46.8087C100.29 46.9612 100.326 47.1118 100.395 47.2475C100.465 47.3833 100.566 47.5004 100.69 47.5887C100.956 47.8007 101.288 47.9134 101.629 47.9078C101.881 47.9078 102.13 47.8576 102.363 47.7602C102.595 47.6628 102.806 47.5202 102.983 47.3405C103.17 47.1746 103.319 46.9712 103.421 46.7436C103.523 46.516 103.576 46.2694 103.577 46.0199C103.115 45.7009 102.561 45.545 102 45.5767C101.567 45.5611 101.14 45.682 100.778 45.9224C100.628 46.0172 100.503 46.1476 100.415 46.3022C100.327 46.4569 100.278 46.6308 100.274 46.8087H100.291Z" fill="black"/>
<path d="M107.27 48.7498H106.065V42.3504H107.216V43.4318H107.27C107.414 43.06 107.679 42.7477 108.022 42.5454C108.356 42.323 108.746 42.2 109.147 42.1909C109.449 42.1851 109.749 42.2362 110.033 42.3416L109.669 43.5115C109.44 43.4401 109.201 43.4101 108.961 43.4229C108.735 43.4224 108.512 43.4713 108.307 43.5663C108.102 43.6612 107.92 43.7998 107.774 43.9724C107.45 44.318 107.269 44.7745 107.27 45.2488V48.7498Z" fill="black"/>
<path d="M112.025 48.7489H110.821V42.3495H111.972V43.2359H112.025C112.24 42.8945 112.547 42.621 112.911 42.447C113.269 42.2323 113.679 42.1189 114.097 42.1189C114.515 42.1189 114.925 42.2323 115.284 42.447C115.635 42.65 115.912 42.9608 116.072 43.3334C116.299 42.9497 116.623 42.6333 117.012 42.4168C117.401 42.2003 117.841 42.0914 118.286 42.1013C118.604 42.0828 118.921 42.1343 119.217 42.2523C119.512 42.3702 119.778 42.5517 119.995 42.7838C120.427 43.3354 120.641 44.026 120.598 44.7249V48.7489H119.393V44.9465C119.434 44.4876 119.319 44.0284 119.065 43.6436C118.924 43.4993 118.752 43.3886 118.562 43.3196C118.372 43.2506 118.169 43.225 117.967 43.2447C117.741 43.2447 117.517 43.2976 117.314 43.3991C117.111 43.5007 116.935 43.6481 116.798 43.8297C116.487 44.226 116.321 44.7173 116.329 45.2213V48.7667H115.125V44.9465C115.166 44.4876 115.05 44.0284 114.797 43.6436C114.656 43.4983 114.484 43.3869 114.294 43.3178C114.104 43.2487 113.9 43.2237 113.699 43.2447C113.473 43.244 113.25 43.2966 113.049 43.3983C112.847 43.4999 112.673 43.6477 112.539 43.8297C112.212 44.2134 112.031 44.6996 112.025 45.2036V48.7489Z" fill="black"/>
<path d="M124.335 42.1368C125.105 42.0918 125.863 42.353 126.442 42.8636C126.703 43.1141 126.907 43.418 127.04 43.7545C127.173 44.091 127.232 44.4522 127.213 44.8136V48.749H126.062V47.8626H126.008C125.802 48.2028 125.51 48.4831 125.162 48.6758C124.814 48.8686 124.422 48.9671 124.025 48.9617C123.377 48.9749 122.748 48.7511 122.254 48.3324C122.028 48.1388 121.847 47.898 121.725 47.6269C121.602 47.3558 121.541 47.061 121.545 46.7636C121.533 46.458 121.596 46.1541 121.727 45.8778C121.858 45.6016 122.054 45.3611 122.298 45.177C122.882 44.7573 123.59 44.548 124.308 44.5831C124.923 44.5598 125.533 44.6973 126.079 44.982V44.7072C126.079 44.5032 126.035 44.3016 125.949 44.1164C125.863 43.9313 125.739 43.7669 125.583 43.6347C125.266 43.3467 124.852 43.1885 124.423 43.1916C124.102 43.1875 123.786 43.267 123.505 43.4224C123.224 43.5778 122.988 43.8037 122.82 44.0779L121.758 43.4132C122.043 42.9986 122.43 42.6638 122.881 42.4405C123.332 42.2172 123.832 42.1126 124.335 42.1368ZM122.776 46.8079C122.775 46.9604 122.811 47.1109 122.88 47.2467C122.949 47.3825 123.05 47.4995 123.175 47.5879C123.441 47.7998 123.773 47.9126 124.113 47.9069C124.365 47.9069 124.615 47.8567 124.848 47.7593C125.08 47.662 125.291 47.5193 125.468 47.3397C125.654 47.1737 125.803 46.9703 125.906 46.7427C126.008 46.5152 126.061 46.2685 126.062 46.019C125.604 45.6989 125.051 45.5427 124.494 45.5758C124.058 45.5601 123.628 45.681 123.263 45.9215C123.116 46.0183 122.995 46.1497 122.91 46.3042C122.825 46.4587 122.779 46.6316 122.776 46.8079Z" fill="black"/>
<path d="M131.437 48.9795C130.996 48.9935 130.558 48.9139 130.15 48.7458C129.743 48.5778 129.375 48.3251 129.072 48.0045C128.473 47.3308 128.142 46.4602 128.142 45.5582C128.142 44.6561 128.473 43.7855 129.072 43.1119C129.377 42.793 129.744 42.5416 130.151 42.3736C130.559 42.2057 130.997 42.1251 131.437 42.1369C132.046 42.126 132.645 42.299 133.155 42.6332C133.643 42.9704 134.025 43.4412 134.253 43.9893L133.155 44.4414C133.033 44.1369 132.835 43.8689 132.58 43.6635C132.325 43.458 132.021 43.3219 131.697 43.2684C131.374 43.215 131.043 43.2459 130.735 43.3582C130.427 43.4705 130.153 43.6604 129.94 43.9096C129.557 44.3749 129.347 44.9593 129.347 45.5626C129.347 46.1659 129.557 46.7504 129.94 47.2156C130.113 47.4242 130.329 47.592 130.574 47.7069C130.819 47.8219 131.087 47.8811 131.357 47.8804C131.755 47.9029 132.149 47.7982 132.484 47.5815C132.818 47.3648 133.075 47.0474 133.217 46.675L134.288 47.1359C134.072 47.6911 133.684 48.1629 133.181 48.4831C132.662 48.819 132.055 48.9918 131.437 48.9795Z" fill="black"/>
<path d="M138.15 48.98C137.714 48.9936 137.281 48.9136 136.879 48.7454C136.478 48.5772 136.116 48.3247 135.82 48.005C135.214 47.3387 134.896 46.4592 134.935 45.5587C134.905 44.6623 135.222 43.7889 135.82 43.1213C136.113 42.8152 136.464 42.5707 136.852 42.402C137.24 42.2333 137.658 42.1438 138.081 42.1389C138.504 42.1339 138.924 42.2136 139.316 42.3731C139.708 42.5327 140.064 42.769 140.363 43.0681C140.964 43.7883 141.265 44.7115 141.205 45.6474V45.7803H136.175C136.169 46.0633 136.221 46.3443 136.328 46.6065C136.434 46.8686 136.593 47.1062 136.795 47.3048C137.026 47.5291 137.307 47.6953 137.615 47.7896C137.923 47.884 138.249 47.9039 138.567 47.8476C138.884 47.7914 139.183 47.6607 139.44 47.4661C139.697 47.2716 139.904 47.0189 140.045 46.7287L141.116 47.2517C140.843 47.777 140.429 48.2159 139.921 48.5191C139.385 48.8362 138.771 48.9959 138.15 48.98ZM136.228 44.7876H139.921C139.907 44.577 139.852 44.3712 139.757 44.1824C139.663 43.9936 139.532 43.8257 139.372 43.6885C139.009 43.3752 138.539 43.2161 138.061 43.2454C137.633 43.2336 137.216 43.3822 136.892 43.6619C136.551 43.9518 136.317 44.3484 136.228 44.7876Z" fill="black"/>
<path d="M147.891 48.7491H146.731V47.8628H146.686C146.481 48.1933 146.19 48.4626 145.845 48.6427C145.37 48.9024 144.826 49.0077 144.288 48.9442C143.75 48.8807 143.245 48.6515 142.843 48.2882C142.388 47.7551 142.162 47.0638 142.214 46.3648V42.3497H143.463V46.3117C143.442 46.5205 143.468 46.7313 143.539 46.9289C143.609 47.1265 143.723 47.3059 143.871 47.4543C144.019 47.6027 144.199 47.7163 144.396 47.7869C144.593 47.8576 144.804 47.8835 145.013 47.8628C145.245 47.8655 145.475 47.8141 145.684 47.7126C145.893 47.611 146.076 47.4622 146.217 47.2778C146.54 46.8869 146.713 46.3933 146.704 45.8862V42.3408H147.891V48.7491Z" fill="black"/>
<path d="M151.973 48.8739C151.73 48.8826 151.488 48.8411 151.262 48.752C151.035 48.6628 150.83 48.528 150.658 48.3559C150.486 48.1837 150.351 47.978 150.262 47.7515C150.173 47.5249 150.132 47.2825 150.14 47.0392V43.4318H149.016V42.3504H150.14V40.3916H151.345V42.3504H152.912V43.4318H151.345V46.6315C151.325 46.7883 151.338 46.9473 151.38 47.0995C151.423 47.2516 151.495 47.3938 151.593 47.5178C151.745 47.6646 151.948 47.7471 152.159 47.7483C152.25 47.7613 152.343 47.7613 152.434 47.7483C152.523 47.7324 152.609 47.7056 152.691 47.6685L153.072 48.741C152.716 48.8492 152.344 48.8942 151.973 48.8739Z" fill="black"/>
<path d="M155.693 40.1428C155.693 40.3778 155.6 40.6033 155.433 40.7695C155.267 40.9357 155.042 41.0291 154.807 41.0291C154.695 41.0308 154.583 41.0088 154.479 40.9645C154.375 40.9203 154.282 40.8547 154.205 40.7721C154.056 40.6087 153.973 40.3952 153.973 40.1738C153.973 39.9523 154.056 39.7389 154.205 39.5755C154.282 39.4929 154.375 39.4273 154.479 39.383C154.583 39.3387 154.695 39.3167 154.807 39.3185C155.042 39.3185 155.267 39.4118 155.433 39.5781C155.6 39.7443 155.693 39.9697 155.693 40.2048V40.1428ZM155.445 42.3498V48.7492H154.241V42.3498H155.445Z" fill="black"/>
<path d="M159.873 48.9794C159.432 48.9923 158.994 48.9122 158.587 48.7442C158.179 48.5762 157.812 48.3241 157.508 48.0044C156.909 47.3308 156.578 46.4602 156.578 45.5581C156.578 44.656 156.909 43.7854 157.508 43.1118C157.813 42.7934 158.18 42.5422 158.588 42.3743C158.995 42.2064 159.432 42.1255 159.873 42.1368C160.475 42.1207 161.068 42.2896 161.571 42.6208C162.075 42.952 162.465 43.4295 162.689 43.9893L161.591 44.4413C161.466 44.076 161.225 43.7615 160.906 43.5456C160.586 43.3296 160.205 43.224 159.82 43.2447C159.548 43.2445 159.279 43.304 159.033 43.4188C158.787 43.5337 158.568 43.7012 158.394 43.9095C158.021 44.3797 157.818 44.9623 157.818 45.5625C157.818 46.1628 158.021 46.7454 158.394 47.2156C158.568 47.4239 158.787 47.5914 159.033 47.7062C159.279 47.8211 159.548 47.8805 159.82 47.8803C160.217 47.9014 160.611 47.7962 160.945 47.5797C161.279 47.3632 161.536 47.0465 161.679 46.6749L162.751 47.1358C162.534 47.6886 162.15 48.1596 161.653 48.483C161.122 48.8227 160.502 48.9956 159.873 48.9794Z" fill="black"/>
<path d="M166.143 42.1374C166.913 42.0943 167.67 42.3553 168.25 42.8642C168.511 43.1147 168.715 43.4186 168.848 43.7551C168.981 44.0916 169.04 44.4528 169.021 44.8142V48.7496H167.869V47.8632H167.816C167.61 48.2033 167.318 48.4836 166.97 48.6764C166.622 48.8692 166.23 48.9677 165.833 48.9623C165.185 48.9755 164.556 48.7517 164.061 48.333C163.836 48.1394 163.655 47.8986 163.533 47.6275C163.41 47.3564 163.349 47.0616 163.353 46.7641C163.345 46.4637 163.408 46.1656 163.537 45.8944C163.666 45.6232 163.858 45.3866 164.097 45.2042C164.681 44.7845 165.389 44.5751 166.107 44.6103C166.722 44.587 167.333 44.7245 167.878 45.0092V44.7344C167.878 44.5304 167.834 44.3288 167.748 44.1436C167.662 43.9585 167.538 43.7941 167.382 43.6619C167.059 43.3769 166.644 43.2194 166.213 43.2188C165.894 43.2162 165.579 43.2965 165.3 43.4518C165.02 43.6071 164.786 43.8322 164.619 44.1051L163.557 43.4315C163.84 43.0117 164.227 42.6722 164.68 42.4455C165.133 42.2189 165.637 42.1128 166.143 42.1374ZM164.584 46.8085C164.583 46.961 164.618 47.1115 164.688 47.2473C164.757 47.383 164.858 47.5001 164.982 47.5884C165.249 47.8004 165.581 47.9132 165.921 47.9075C166.173 47.9075 166.423 47.8573 166.655 47.7599C166.888 47.6625 167.099 47.5199 167.276 47.3403C167.462 47.1743 167.611 46.9709 167.714 46.7433C167.816 46.5158 167.869 46.2691 167.869 46.0196C167.408 45.7007 166.853 45.5447 166.293 45.5764C165.863 45.5621 165.438 45.683 165.08 45.9221C164.93 46.0167 164.806 46.1474 164.719 46.3022C164.633 46.457 164.586 46.631 164.584 46.8085Z" fill="black"/>
<path d="M171.58 39.3984V48.7494H170.375V39.3984H171.58Z" fill="black"/>
<path d="M177.885 46.9769C177.883 47.2536 177.816 47.526 177.69 47.7723C177.564 48.0185 177.382 48.2318 177.159 48.3951C176.626 48.7923 175.973 48.9955 175.308 48.9712C174.706 48.9837 174.114 48.807 173.617 48.466C173.135 48.1439 172.767 47.679 172.563 47.1365L173.643 46.6756C173.78 47.0308 174.017 47.3387 174.325 47.5619C174.611 47.7694 174.955 47.8811 175.308 47.881C175.65 47.8942 175.988 47.808 176.282 47.6328C176.39 47.5739 176.481 47.4884 176.546 47.3844C176.611 47.2805 176.648 47.1615 176.654 47.039C176.654 46.6313 176.344 46.3299 175.716 46.1526L174.618 45.8779C173.369 45.5676 172.749 44.9915 172.749 44.1052C172.743 43.8292 172.805 43.5559 172.93 43.3099C173.055 43.0639 173.239 42.8529 173.466 42.6959C173.961 42.3713 174.536 42.1881 175.127 42.1663C175.719 42.1444 176.305 42.2846 176.823 42.5718C177.256 42.8181 177.596 43.2016 177.788 43.662L176.707 44.1052C176.582 43.8354 176.374 43.6121 176.114 43.467C175.843 43.3176 175.538 43.2384 175.229 43.2366C174.916 43.2288 174.609 43.3119 174.343 43.4759C174.235 43.5298 174.144 43.6117 174.078 43.713C174.013 43.8143 173.976 43.9314 173.971 44.052C173.971 44.4243 174.316 44.6902 174.998 44.8408L175.972 45.089C177.257 45.3726 177.885 46.0197 177.885 46.9769Z" fill="black"/>
</g>
<defs>
<linearGradient id="paint0_linear" x1="8.59898" y1="12.5154" x2="28.3468" y2="32.2459" gradientUnits="userSpaceOnUse">
<stop stop-color="#21E8DE"/>
<stop offset="1" stop-color="#009345"/>
</linearGradient>
<linearGradient id="paint1_linear" x1="28.0994" y1="30.987" x2="71.8113" y2="30.987" gradientUnits="userSpaceOnUse">
<stop stop-color="#71D3F4"/>
<stop offset="1" stop-color="#0098FF"/>
</linearGradient>
<clipPath id="clip0">
<rect width="203" height="61.9822" fill="white"/>
</clipPath>
</defs>
</svg>
