<svg width="44" height="20" viewBox="0 0 44 20" fill="none" xmlns="http://www.w3.org/2000/svg">
<rect opacity="0.1" width="44" height="20" rx="8" fill="white"/>
<path fill-rule="evenodd" clip-rule="evenodd" d="M29.4335 5.01699L29.0515 7.2362C27.9062 6.60179 25.2994 6.45168 25.2992 7.62017C25.2992 8.08437 25.889 8.40362 26.5998 8.7884C27.6779 9.37196 29.0345 10.1062 29.0345 11.7255C29.0345 14.3129 26.279 15.2636 24.4524 15.2636C22.6264 15.2636 21.4313 14.68 21.4313 14.68L21.8292 12.3596C22.9251 13.2439 26.2457 13.4952 26.2457 12.0929C26.2457 11.5036 25.592 11.1561 24.834 10.7531C23.7881 10.1971 22.5437 9.53548 22.5437 7.98755C22.5437 5.14996 25.6979 4.56641 27.0262 4.56641C28.2549 4.56641 29.4335 5.01699 29.4335 5.01699ZM38.3641 15.0853H35.9065L35.593 13.5502H32.1904L31.6324 15.0853H28.8423L32.8342 5.52093C32.8342 5.52093 33.0762 4.75079 34.0697 4.75079H36.2213L38.3641 15.0853ZM14.8538 4.75106L12.3021 11.859L12.0002 10.3284L12.0004 10.3289L11.0998 5.68154C11.0998 5.68154 10.9909 4.75106 9.83013 4.75106H5.61163L5.56213 4.92605C5.56213 4.92605 6.85216 5.19585 8.36191 6.10725L10.6873 15.0855H13.4761L17.7345 4.75106H14.8538ZM19.7821 15.0853H17.1055L18.7784 4.75106H21.4552L19.7821 15.0853ZM32.9612 11.4297L34.3676 7.5624L35.1587 11.4297H32.9612Z" fill="#2566AF"/>
<path d="M12.0004 10.3286L11.0998 5.68121C11.0998 5.68121 10.9909 4.75073 9.83013 4.75073H5.61163L5.56213 4.92571C5.56213 4.92571 7.58971 5.34811 9.53451 6.93069C11.3941 8.44333 12.0004 10.3286 12.0004 10.3286Z" fill="#E6A540"/>
</svg>
