<svg width="33" height="34" viewBox="0 0 33 34" fill="none" xmlns="http://www.w3.org/2000/svg">
<path d="M16.7274 6.12891C18.153 6.12891 19.5202 6.69524 20.5283 7.70332C21.5364 8.71141 22.1027 10.0787 22.1027 11.5043C22.1027 12.9299 21.5364 14.2972 20.5283 15.3053C19.5202 16.3134 18.153 16.8797 16.7274 16.8797C15.3017 16.8797 13.9345 16.3134 12.9264 15.3053C11.9183 14.2972 11.352 12.9299 11.352 11.5043C11.352 10.0787 11.9183 8.71141 12.9264 7.70332C13.9345 6.69524 15.3017 6.12891 16.7274 6.12891ZM16.7274 19.5674C22.6672 19.5674 27.4781 21.9729 27.4781 24.9428V27.6305H5.97656V24.9428C5.97656 21.9729 10.7875 19.5674 16.7274 19.5674Z" fill="white"/>
</svg>
