<svg width="20" height="17" viewBox="0 0 20 17" fill="none" xmlns="http://www.w3.org/2000/svg">
<path fill-rule="evenodd" clip-rule="evenodd" d="M18.3335 6.5H14.3418L10.6835 1.025C10.3502 0.533333 9.62516 0.533333 9.30016 1.025L5.64183 6.5H1.66683C1.2085 6.5 0.833496 6.875 0.833496 7.33333C0.833496 7.40833 0.841829 7.48333 0.866829 7.55833L2.9835 15.2833C3.17516 15.9833 3.81683 16.5 4.5835 16.5H15.4168C16.1835 16.5 16.8252 15.9833 17.0252 15.2833L19.1418 7.55833L19.1668 7.33333C19.1668 6.875 18.7918 6.5 18.3335 6.5ZM9.99183 2.99167L12.3335 6.5H7.65016L9.99183 2.99167ZM10.0002 13.1667C9.0835 13.1667 8.3335 12.4167 8.3335 11.5C8.3335 10.5833 9.0835 9.83333 10.0002 9.83333C10.9168 9.83333 11.6668 10.5833 11.6668 11.5C11.6668 12.4167 10.9168 13.1667 10.0002 13.1667Z" fill="#054FF0"/>
</svg>
