<svg width="28" height="28" viewBox="0 0 28 28" fill="none" xmlns="http://www.w3.org/2000/svg">
<path d="M22.2221 22.2555C20.6957 22.2555 19.4719 23.4794 19.4719 25.0057C19.4719 25.7351 19.7616 26.4347 20.2774 26.9504C20.7932 27.4662 21.4927 27.7559 22.2221 27.7559C22.9515 27.7559 23.651 27.4662 24.1668 26.9504C24.6825 26.4347 24.9723 25.7351 24.9723 25.0057C24.9723 24.2763 24.6825 23.5768 24.1668 23.061C23.651 22.5453 22.9515 22.2555 22.2221 22.2555ZM0.220459 0.253906V3.00411H2.97066L7.92103 13.4411L6.05089 16.8101C5.84462 17.1952 5.72086 17.6489 5.72086 18.1302C5.72086 18.8596 6.01062 19.5591 6.52638 20.0749C7.04214 20.5907 7.74167 20.8804 8.47107 20.8804H24.9723V18.1302H9.04861C8.95743 18.1302 8.86999 18.094 8.80552 18.0295C8.74105 17.9651 8.70483 17.8776 8.70483 17.7864C8.70483 17.7177 8.71859 17.6627 8.74609 17.6214L9.98368 15.38H20.2282C21.2595 15.38 22.1671 14.8025 22.6346 13.9637L27.5575 5.06676C27.6537 4.84674 27.7225 4.61298 27.7225 4.37921C27.7225 4.01451 27.5776 3.66475 27.3197 3.40687C27.0618 3.14899 26.7121 3.00411 26.3474 3.00411H6.00964L4.71704 0.253906H0.220459ZM8.47107 22.2555C6.9447 22.2555 5.72086 23.4794 5.72086 25.0057C5.72086 25.7351 6.01062 26.4347 6.52638 26.9504C7.04214 27.4662 7.74167 27.7559 8.47107 27.7559C9.20047 27.7559 9.89999 27.4662 10.4158 26.9504C10.9315 26.4347 11.2213 25.7351 11.2213 25.0057C11.2213 24.2763 10.9315 23.5768 10.4158 23.061C9.89999 22.5453 9.20047 22.2555 8.47107 22.2555Z" fill="#16CFB0"/>
</svg>
