<svg width="30" height="30" viewBox="0 0 30 30" fill="none" xmlns="http://www.w3.org/2000/svg">
<path d="M29.0757 12.2813H14.9624V18.082H23.0249C22.6773 19.957 21.6226 21.543 20.0327 22.6055C18.689 23.5039 16.9741 24.0352 14.9585 24.0352C11.0562 24.0352 7.75537 21.3984 6.57569 17.8555C6.27881 16.957 6.10694 15.9961 6.10694 15.0078C6.10694 14.0195 6.27881 13.0586 6.57569 12.1602C7.75928 8.62109 11.0601 5.98438 14.9624 5.98438C17.1616 5.98438 19.1343 6.74219 20.689 8.22656L24.9858 3.92578C22.3882 1.50391 19.0015 0.0195312 14.9624 0.0195312C9.10694 0.0195312 4.04053 3.37891 1.57568 8.27734C0.560059 10.3008 -0.0180664 12.5898 -0.0180664 15.0117C-0.0180664 17.4336 0.560059 19.7188 1.57568 21.7422C4.04053 26.6406 9.10694 30 14.9624 30C19.0093 30 22.3999 28.6563 24.8765 26.3672C27.7085 23.7578 29.3452 19.9141 29.3452 15.3477C29.3452 14.2852 29.2515 13.2656 29.0757 12.2813Z" fill="white"/>
</svg>
