<svg width="30" height="30" viewBox="0 0 30 30" fill="none" xmlns="http://www.w3.org/2000/svg">
<path d="M15.0444 10.0186C12.3015 10.0186 10.0632 12.2569 10.0632 14.9998C10.0632 17.7426 12.3015 19.981 15.0444 19.981C17.7872 19.981 20.0256 17.7426 20.0256 14.9998C20.0256 12.2569 17.7872 10.0186 15.0444 10.0186ZM29.9843 14.9998C29.9843 12.937 30.003 10.893 29.8871 8.83399C29.7713 6.44241 29.2257 4.31988 27.4769 2.57104C25.7243 0.818454 23.6055 0.276612 21.2139 0.160769C19.1512 0.0449272 17.1071 0.0636115 15.0481 0.0636115C12.9854 0.0636115 10.9413 0.0449272 8.88233 0.160769C6.49075 0.276612 4.36822 0.822191 2.61938 2.57104C0.866794 4.32362 0.324952 6.44241 0.209109 8.83399C0.0932671 10.8967 0.111951 12.9408 0.111951 14.9998C0.111951 17.0588 0.0932671 19.1066 0.209109 21.1656C0.324952 23.5572 0.870531 25.6797 2.61938 27.4285C4.37196 29.1811 6.49075 29.723 8.88233 29.8388C10.9451 29.9546 12.9891 29.936 15.0481 29.936C17.1109 29.936 19.1549 29.9546 21.2139 29.8388C23.6055 29.723 25.728 29.1774 27.4769 27.4285C29.2295 25.676 29.7713 23.5572 29.8871 21.1656C30.0067 19.1066 29.9843 17.0625 29.9843 14.9998ZM15.0444 22.6641C10.8031 22.6641 7.38012 19.2411 7.38012 14.9998C7.38012 10.7585 10.8031 7.33552 15.0444 7.33552C19.2857 7.33552 22.7087 10.7585 22.7087 14.9998C22.7087 19.2411 19.2857 22.6641 15.0444 22.6641ZM23.0226 8.81157C22.0323 8.81157 21.2326 8.01188 21.2326 7.02162C21.2326 6.03136 22.0323 5.23167 23.0226 5.23167C24.0128 5.23167 24.8125 6.03136 24.8125 7.02162C24.8128 7.25676 24.7667 7.48965 24.6769 7.70695C24.587 7.92425 24.4552 8.12169 24.2889 8.28796C24.1226 8.45424 23.9252 8.58607 23.7079 8.67592C23.4906 8.76577 23.2577 8.81186 23.0226 8.81157Z" fill="white"/>
</svg>
