<svg width="31" height="31" viewBox="0 0 31 31" fill="none" xmlns="http://www.w3.org/2000/svg">
<path d="M15.2512 0.762122C23.3978 0.762122 30.0025 7.37089 30.0025 15.5239C30.0025 23.677 23.3978 30.2858 15.2512 30.2858C7.10468 30.2858 0.5 23.677 0.499999 15.5239C0.499999 7.37089 7.10468 0.762123 15.2512 0.762122Z" stroke="#F6F5F3"/>
<path d="M11.2668 15.5215C11.2668 17.726 13.0437 19.5041 15.2466 19.5041C17.4495 19.5041 19.2263 17.726 19.2263 15.5215C19.2263 13.3171 17.4495 11.539 15.2466 11.539C13.0437 11.539 11.2668 13.3171 11.2668 15.5215ZM17.8339 15.5215C17.8339 16.9461 16.6736 18.1107 15.2466 18.1107C13.8195 18.1107 12.6592 16.9496 12.6592 15.5215C12.6592 14.0935 13.8195 12.9324 15.2466 12.9324C16.6736 12.9324 17.8339 14.097 17.8339 15.5215ZM11.104 10.4472C11.6201 10.4472 12.0323 10.8631 12.0323 11.3761C12.0323 11.8926 11.6166 12.305 11.104 12.305C10.5914 12.305 10.1758 11.8891 10.1758 11.3761C10.1758 10.8631 10.5914 10.4472 11.104 10.4472ZM12.0461 7.80953C10.8027 7.86845 9.70124 8.15267 8.79375 9.06425C7.88627 9.97236 7.60225 11.0746 7.5399 12.3189C7.46717 13.6013 7.46717 17.4452 7.5399 18.7277C7.59879 19.9685 7.88281 21.0707 8.79029 21.9823C9.69777 22.8939 10.7992 23.1746 12.0427 23.237C13.3242 23.3098 17.1655 23.3098 18.447 23.237C19.6905 23.1781 20.7919 22.8939 21.6994 21.9823C22.6069 21.0707 22.8909 19.972 22.9533 18.7277C23.026 17.4452 23.026 13.6013 22.9533 12.3189C22.8944 11.0746 22.6103 9.97236 21.6994 9.06425C20.7919 8.15614 19.6905 7.87192 18.447 7.80953C17.1655 7.73674 13.3277 7.73674 12.0461 7.80953ZM19.8221 9.46631C20.501 9.73667 21.024 10.26 21.2976 10.9429C21.7029 11.9654 21.6093 14.3916 21.6093 15.5215C21.6093 16.6515 21.6994 19.0812 21.2976 20.1002C21.0274 20.7796 20.5044 21.303 19.8221 21.5768C18.8003 21.9823 16.3757 21.8887 15.2466 21.8887C14.1174 21.8887 11.6894 21.9788 10.6711 21.5768C9.99219 21.3064 9.46917 20.7831 9.19554 20.1002C8.79029 19.0777 8.88381 16.6515 8.88381 15.5215C8.88381 14.3916 8.79375 11.9619 9.19554 10.9429C9.46571 10.2635 9.98872 9.74014 10.6711 9.46632C11.6928 9.06078 14.1174 9.15437 15.2466 9.15437C16.3757 9.15437 18.8038 9.06078 19.8221 9.46631Z" fill="#F6F5F3"/>
</svg>
