<svg width="31" height="32" viewBox="0 0 31 32" fill="none" xmlns="http://www.w3.org/2000/svg">
<path d="M30.0236 16.037C30.0236 24.1836 23.4149 30.7882 15.2618 30.7882C7.10877 30.7882 0.5 24.1836 0.5 16.037C0.5 7.89045 7.10877 1.28577 15.2618 1.28577C23.4149 1.28577 30.0236 7.89045 30.0236 16.037Z" stroke="#F6F5F3"/>
<g clip-path="url(#clip0_7780_1174)">
<path d="M11.2443 22.1549H8.28463V12.6239H11.2443V22.1549ZM9.76289 11.3238C8.81647 11.3238 8.04883 10.5399 8.04883 9.59345C8.04883 9.13886 8.22942 8.70288 8.55086 8.38143C8.87231 8.05998 9.30829 7.87939 9.76289 7.87939C10.2175 7.87939 10.6535 8.05998 10.9749 8.38143C11.2964 8.70288 11.4769 9.13886 11.4769 9.59345C11.4769 10.5399 10.709 11.3238 9.76289 11.3238ZM22.3215 22.1549H19.3682V17.5153C19.3682 16.4095 19.3459 14.9915 17.8294 14.9915C16.2906 14.9915 16.0548 16.1929 16.0548 17.4356V22.1549H13.0983V12.6239H15.9369V13.924H15.9783C16.3734 13.1752 17.3387 12.3849 18.7787 12.3849C21.774 12.3849 22.3247 14.3574 22.3247 16.9194V22.1549H22.3215Z" fill="#F6F5F3"/>
</g>
<defs>
<clipPath id="clip0_7780_1174">
<rect width="16.3153" height="16.3153" fill="white" transform="translate(7.0293 7.87939)"/>
</clipPath>
</defs>
</svg>
