<svg width="29" height="30" viewBox="0 0 29 30" fill="none" xmlns="http://www.w3.org/2000/svg">
<g clip-path="url(#clip0)">
<path d="M3.54669 6.77503C5.43779 6.77503 6.97083 5.24199 6.97083 3.35089C6.97083 1.45979 5.43779 -0.0732422 3.54669 -0.0732422C1.6556 -0.0732422 0.122559 1.45979 0.122559 3.35089C0.122559 5.24199 1.6556 6.77503 3.54669 6.77503Z" fill="white"/>
<path d="M10.2038 9.36939V28.3664H16.1021V18.972C16.1021 16.4931 16.5685 14.0924 19.6421 14.0924C22.6734 14.0924 22.711 16.9266 22.711 19.1285V28.368H28.6124V17.9501C28.6124 12.8326 27.5107 8.8999 21.5294 8.8999C18.6577 8.8999 16.7328 10.4758 15.9456 11.9672H15.8658V9.36939H10.2038ZM0.591797 9.36939H6.49952V28.3664H0.591797V9.36939Z" fill="white"/>
</g>
<defs>
<clipPath id="clip0">
<rect width="28.3465" height="30" fill="white" transform="translate(0.236572)"/>
</clipPath>
</defs>
</svg>
