<svg width="15" height="14" viewBox="0 0 15 14" fill="none" xmlns="http://www.w3.org/2000/svg">
<path d="M14.125 12.4723L11.5748 9.92962C12.3976 8.88138 12.8441 7.58694 12.8424 6.25435C12.8424 5.06758 12.4905 3.90745 11.8312 2.92068C11.1718 1.93392 10.2347 1.16482 9.13827 0.710665C8.04183 0.256506 6.83534 0.137677 5.67137 0.369206C4.5074 0.600734 3.43822 1.17222 2.59904 2.0114C1.75987 2.85057 1.18838 3.91975 0.956852 5.08372C0.725324 6.24769 0.844153 7.45418 1.29831 8.55062C1.75247 9.64706 2.52156 10.5842 3.50833 11.2435C4.4951 11.9029 5.65522 12.2548 6.842 12.2548C8.17459 12.2564 9.46903 11.81 10.5173 10.9872L13.06 13.5374C13.1297 13.6077 13.2126 13.6635 13.304 13.7016C13.3954 13.7396 13.4935 13.7593 13.5925 13.7593C13.6915 13.7593 13.7895 13.7396 13.8809 13.7016C13.9723 13.6635 14.0553 13.6077 14.125 13.5374C14.1953 13.4677 14.2511 13.3847 14.2892 13.2933C14.3273 13.2019 14.3469 13.1039 14.3469 13.0048C14.3469 12.9058 14.3273 12.8078 14.2892 12.7164C14.2511 12.625 14.1953 12.542 14.125 12.4723ZM2.34167 6.25435C2.34167 5.36427 2.60561 4.49418 3.10011 3.7541C3.59461 3.01403 4.29747 2.43721 5.11979 2.09659C5.94212 1.75597 6.84699 1.66685 7.71997 1.84049C8.59295 2.01414 9.39483 2.44275 10.0242 3.07214C10.6536 3.70152 11.0822 4.5034 11.2559 5.37638C11.4295 6.24936 11.3404 7.15422 10.9998 7.97655C10.6591 8.79888 10.0823 9.50174 9.34225 9.99624C8.60217 10.4907 7.73208 10.7547 6.842 10.7547C5.64844 10.7547 4.50376 10.2805 3.65978 9.43657C2.81581 8.59259 2.34167 7.44791 2.34167 6.25435Z" fill="black"/>
</svg>
