<svg width="24" height="23" viewBox="0 0 24 23" fill="none" xmlns="http://www.w3.org/2000/svg">
<g clip-path="url(#clip0)">
<path d="M19.071 0.767821L1.39338 18.4455C0.417067 19.4218 0.417067 21.0047 1.39338 21.981C2.36969 22.9573 3.9526 22.9573 4.92891 21.981L22.6066 4.30335C23.5829 3.32704 23.5829 1.74413 22.6066 0.767821C21.6303 -0.20849 20.0474 -0.20849 19.071 0.767821Z" fill="#0098FF"/>
<g clip-path="url(#clip1)">
<path d="M22.6066 18.4454L4.9289 0.767767C3.95259 -0.208544 2.36968 -0.208544 1.39337 0.767767C0.417055 1.74408 0.417055 3.32699 1.39337 4.3033L19.071 21.981C20.0473 22.9573 21.6303 22.9573 22.6066 21.981C23.5829 21.0047 23.5829 19.4217 22.6066 18.4454Z" fill="#0098FF"/>
</g>
</g>
<defs>
<clipPath id="clip0">
<rect width="24" height="23" fill="white"/>
</clipPath>
<clipPath id="clip1">
<rect width="24" height="23" fill="white"/>
</clipPath>
</defs>
</svg>
