<svg width="37" height="30" viewBox="0 0 37 30" fill="none" xmlns="http://www.w3.org/2000/svg">
<path d="M36.9275 3.56363C35.5695 4.14942 34.0917 4.57102 32.5695 4.73522C34.1499 3.79633 35.3334 2.31303 35.8979 0.563627C34.4149 1.44583 32.7903 2.06444 31.0961 2.39203C30.388 1.63505 29.5317 1.032 28.5803 0.620465C27.629 0.208931 26.6031 -0.00227123 25.5665 1.84189e-05C21.3728 1.84189e-05 18 3.39942 18 7.57102C18 8.15682 18.071 8.74262 18.1864 9.30623C11.9068 8.97782 6.30621 5.97783 2.58284 1.38463C1.9044 2.54343 1.54888 3.86285 1.55325 5.20564C1.55325 7.83285 2.88905 10.1494 4.92603 11.5118C3.72561 11.4646 2.55329 11.1346 1.50444 10.5488V10.642C1.50444 14.321 4.10503 17.3698 7.571 18.071C6.92023 18.2401 6.25077 18.3265 5.5784 18.3284C5.08579 18.3284 4.61982 18.2796 4.14941 18.213C5.10798 21.213 7.8994 23.392 11.2234 23.463C8.62277 25.5 5.36538 26.6982 1.8284 26.6982C1.19379 26.6982 0.607988 26.676 0 26.605C3.35503 28.7574 7.33579 30 11.6228 30C25.5399 30 33.1553 18.4704 33.1553 8.46303C33.1553 8.13463 33.1553 7.80623 33.1331 7.47782C34.6065 6.39942 35.8979 5.06362 36.9275 3.56363Z" fill="white"/>
</svg>
