<svg width="17" height="16" viewBox="0 0 17 16" fill="none" xmlns="http://www.w3.org/2000/svg">
<path fill-rule="evenodd" clip-rule="evenodd" d="M13.5341 7.59865L9.36987 3.96012C9.17024 3.78569 9.14981 3.48246 9.32423 3.28283C9.49866 3.0832 9.80189 3.06277 10.0015 3.2372L15.1215 7.71082C15.1228 7.71197 15.1241 7.71312 15.1254 7.71428C15.228 7.80231 15.293 7.9329 15.293 8.07865C15.293 8.25719 15.1955 8.41295 15.0509 8.49565L10.002 12.9197C9.80265 13.0944 9.49939 13.0744 9.32468 12.875C9.14997 12.6756 9.16998 12.3724 9.36936 12.1976L13.5223 8.55865L2.17555 8.55865C1.91045 8.55865 1.69555 8.34375 1.69555 8.07865C1.69555 7.81356 1.91045 7.59865 2.17555 7.59865L13.5341 7.59865Z" fill="#F6F5F3"/>
</svg>
