<svg width="20" height="20" viewBox="0 0 20 20" fill="none" xmlns="http://www.w3.org/2000/svg">
<rect width="20" height="20" rx="10" fill="#CED9DB"/>
<path d="M9.74642 5.492C8.07842 5.492 6.99842 6.608 6.99842 8.288L7.01042 8.504H8.03042V8.42C8.03042 7.256 8.64242 6.392 9.68642 6.392C10.6104 6.392 11.3304 7.04 11.3304 7.94C11.3304 8.42 11.1984 8.828 10.9224 9.176C10.6584 9.512 10.0224 10.004 9.03842 10.592C8.21042 11.096 7.62242 11.612 7.31042 12.14C7.01042 12.68 6.83042 13.292 6.77042 14H12.3264V13.1H7.95842C8.07842 12.44 8.52242 11.912 9.83042 11.156C10.8984 10.544 11.5944 10.004 11.9184 9.524C12.2424 9.056 12.4104 8.528 12.4104 7.94C12.4104 6.44 11.3184 5.492 9.74642 5.492Z" fill="#333333"/>
</svg>
