<svg width="16" height="16" viewBox="0 0 16 16" fill="none" xmlns="http://www.w3.org/2000/svg">
<path fill-rule="evenodd" clip-rule="evenodd" d="M13.1999 7.59865L9.03564 3.96012C8.83601 3.78569 8.81558 3.48246 8.99001 3.28283C9.16443 3.0832 9.46766 3.06277 9.66729 3.2372L14.7873 7.71082C14.7886 7.71197 14.7899 7.71312 14.7912 7.71428C14.8938 7.80231 14.9587 7.9329 14.9587 8.07865C14.9587 8.25719 14.8613 8.41295 14.7166 8.49565L9.6678 12.9197C9.46842 13.0944 9.16516 13.0744 8.99045 12.875C8.81574 12.6756 8.83575 12.3724 9.03513 12.1976L13.1881 8.55865L1.84132 8.55865C1.57622 8.55865 1.36132 8.34375 1.36132 8.07865C1.36132 7.81356 1.57622 7.59865 1.84132 7.59865L13.1999 7.59865Z" fill="#054FF0"/>
</svg>
