<svg width="175" height="74" viewBox="0 0 175 74" fill="none" xmlns="http://www.w3.org/2000/svg">
<path d="M32.0969 10.2781C30.0504 12.7105 26.776 14.629 23.5016 14.3549C23.0923 11.0661 24.6954 7.5717 26.5714 5.4134C28.6179 2.91251 32.1993 1.13105 35.0985 0.994019C35.4396 4.41989 34.1093 7.77725 32.0969 10.2781ZM35.0644 15.0059C30.3233 14.7318 26.2644 17.7123 24.0132 17.7123C21.728 17.7123 18.283 15.1429 14.5311 15.2114C9.65356 15.2799 5.11713 18.0549 2.62721 22.4743C-2.48906 31.313 1.29698 44.3999 6.24271 51.5942C8.66441 55.1571 11.5636 59.0626 15.3838 58.9256C18.9993 58.7886 20.4318 56.5617 24.7977 56.5617C29.1977 56.5617 30.4597 58.9256 34.2799 58.8571C38.2365 58.7885 40.7264 55.2942 43.1481 51.7312C45.9109 47.6887 47.0365 43.749 47.1047 43.5434C47.0365 43.4749 39.4644 40.5629 39.3962 31.7926C39.3279 24.4613 45.3652 20.9669 45.638 20.7613C42.2272 15.691 36.9062 15.1429 35.0644 15.0059ZM62.4535 5.07081V58.4802H70.7078V40.2203H82.1341C92.5713 40.2203 99.9046 33.026 99.9046 22.6113C99.9046 12.1966 92.7077 5.07081 82.407 5.07081H62.4535ZM70.7078 12.0596H80.224C87.3868 12.0596 91.4798 15.8966 91.4798 22.6456C91.4798 29.3945 87.3868 33.2658 80.1899 33.2658H70.7078V12.0596ZM114.981 58.8913C120.165 58.8913 124.974 56.2534 127.157 52.0738H127.328V58.4802H134.968V31.8954C134.968 24.1872 128.829 19.2197 119.381 19.2197C110.615 19.2197 104.134 24.2557 103.895 31.176H111.331C111.945 27.8871 114.981 25.7288 119.142 25.7288C124.19 25.7288 127.021 28.0927 127.021 32.4436V35.3898L116.72 36.0065C107.136 36.5889 101.951 40.5286 101.951 47.3804C101.951 54.3007 107.306 58.8913 114.981 58.8913ZM117.198 52.5535C112.798 52.5535 110.001 50.4294 110.001 47.1748C110.001 43.8175 112.695 41.8647 117.846 41.5564L127.021 40.974V43.9888C127.021 48.9905 122.791 52.5535 117.198 52.5535ZM145.167 73.0059C153.216 73.0059 157.002 69.9226 160.311 60.57L174.807 19.7336H166.416L156.695 51.2859H156.525L146.804 19.7336H138.174L152.159 58.6173L151.408 60.9811C150.146 64.9894 148.1 66.531 144.45 66.531C143.802 66.531 142.54 66.4625 142.029 66.394V72.8004C142.506 72.9374 144.553 73.0059 145.167 73.0059Z" fill="black"/>
</svg>
