<svg width="182" height="73" viewBox="0 0 182 73" fill="none" xmlns="http://www.w3.org/2000/svg">
<g clip-path="url(#clip0)">
<path d="M86.0805 35.3088V56.4949H79.3594V4.1746H97.1849C99.3127 4.13015 101.428 4.50752 103.409 5.28493C105.39 6.06234 107.198 7.2244 108.728 8.70404C110.273 10.0938 111.503 11.7983 112.334 13.7028C113.166 15.6074 113.58 17.6679 113.549 19.7459C113.594 21.8349 113.186 23.9089 112.353 25.8256C111.521 27.7422 110.284 29.4563 108.728 30.8503C105.611 33.8226 101.763 35.3074 97.1849 35.3046H86.0805V35.3088ZM86.0805 10.616V28.8799H97.3519C98.5876 28.9165 99.8173 28.6948 100.962 28.229C102.108 27.7632 103.143 27.0635 104.002 26.1747C104.857 25.3437 105.536 24.3498 106 23.2516C106.464 22.1535 106.703 20.9735 106.703 19.7813C106.703 18.5892 106.464 17.4092 106 16.311C105.536 15.2129 104.857 14.2189 104.002 13.3879C103.154 12.4804 102.122 11.7636 100.975 11.285C99.8289 10.8064 98.5938 10.5769 97.3519 10.6118H86.0805V10.616Z" fill="#5F6368"/>
<path d="M129.038 19.5288C134.006 19.5288 137.927 20.8563 140.802 23.5114C143.677 26.1664 145.113 29.8067 145.11 34.4321V56.4949H138.681V51.5271H138.389C135.606 55.6182 131.905 57.6638 127.285 57.6638C123.341 57.6638 120.042 56.4949 117.387 54.1571C116.113 53.0841 115.094 51.7404 114.405 50.2238C113.716 48.7072 113.374 47.0559 113.404 45.3905C113.404 41.6862 114.804 38.7403 117.604 36.5528C120.404 34.3653 124.141 33.2688 128.817 33.2632C132.808 33.2632 136.095 33.9938 138.677 35.4549V33.9187C138.685 32.7832 138.44 31.6603 137.959 30.6314C137.479 29.6025 136.776 28.6933 135.901 27.9698C134.124 26.3663 131.807 25.4913 129.414 25.5194C125.659 25.5194 122.688 27.1029 120.501 30.2701L114.581 26.5421C117.838 21.8666 122.656 19.5288 129.038 19.5288ZM120.342 45.5366C120.338 46.3919 120.538 47.236 120.926 47.9985C121.313 48.7609 121.878 49.4197 122.572 49.9199C124.058 51.0892 125.903 51.7086 127.794 51.6732C130.63 51.6685 133.349 50.5396 135.354 48.5339C137.581 46.4383 138.694 43.9794 138.694 41.1574C136.598 39.4876 133.676 38.6526 129.927 38.6526C127.197 38.6526 124.921 39.3108 123.098 40.6272C121.257 41.9631 120.342 43.587 120.342 45.5366Z" fill="#5F6368"/>
<path d="M182.013 20.6976L159.57 72.2748H152.632L160.96 54.228L146.203 20.6976H153.509L164.175 46.4132H164.321L174.695 20.6976H182.013Z" fill="#5F6368"/>
<path d="M58.9179 30.7417C58.9204 28.6935 58.7472 26.6488 58.4002 24.6301H30.0547V36.2063H46.2897C45.9575 38.0552 45.2543 39.8176 44.2226 41.3874C43.1909 42.9573 41.852 44.3019 40.2866 45.3403V52.8546H49.9759C55.6492 47.6238 58.9179 39.8883 58.9179 30.7417Z" fill="#4285F4"/>
<path d="M30.0583 60.1142C38.1696 60.1142 44.9992 57.4508 49.9795 52.8588L40.2903 45.3445C37.5935 47.173 34.1202 48.2166 30.0583 48.2166C22.2184 48.2166 15.5641 42.9316 13.1846 35.8097H3.20312V43.5536C5.70482 48.5317 9.54091 52.7165 14.2831 55.6409C19.0253 58.5652 24.487 60.114 30.0583 60.1142Z" fill="#34A853"/>
<path d="M13.1859 35.8097C11.928 32.0778 11.928 28.0364 13.1859 24.3045V16.5606H3.20445C1.09994 20.7484 0.00390625 25.3703 0.00390625 30.0571C0.00390625 34.7439 1.09994 39.3658 3.20445 43.5536L13.1859 35.8097Z" fill="#FBBC04"/>
<path d="M30.0583 11.8976C34.3447 11.8276 38.4866 13.4471 41.5886 16.4062L50.1674 7.82739C44.7275 2.718 37.5209 -0.0871428 30.0583 1.89028e-05C24.487 0.000272823 19.0253 1.54902 14.2831 4.47336C9.54091 7.3977 5.70482 11.5825 3.20312 16.5607L13.1846 24.3045C15.5641 17.1827 22.2184 11.8976 30.0583 11.8976Z" fill="#EA4335"/>
</g>
<defs>
<clipPath id="clip0">
<rect width="182" height="72.2748" fill="white"/>
</clipPath>
</defs>
</svg>
