<svg width="1723" height="913" viewBox="0 0 1723 913" fill="none" xmlns="http://www.w3.org/2000/svg">
<rect x="211.016" y="335.872" width="243.66" height="120.138" rx="60.0689" transform="rotate(-150 211.016 335.872)" fill="#0098FF"/>
<rect x="353.287" y="735.852" width="163.976" height="75.7799" rx="37.8899" transform="rotate(154.104 353.287 735.852)" stroke="url(#paint0_linear)" stroke-width="10"/>
<rect x="1515" y="254.178" width="99.5096" height="49.0638" rx="24.5319" transform="rotate(-60 1515 254.178)" fill="#21E8DE"/>
<rect x="1401" y="793.647" width="288" height="142" rx="71" transform="rotate(-45 1401 793.647)" fill="#71D3F4"/>
<rect opacity="0.1" x="1408.94" y="811.706" width="301.033" height="142" rx="71" transform="rotate(-45 1408.94 811.706)" fill="url(#paint1_linear)"/>
<rect opacity="0.6" x="1455.88" y="510.395" width="62.8999" height="27.4645" rx="13.7323" transform="rotate(-123.837 1455.88 510.395)" stroke="url(#paint2_linear)" stroke-width="7"/>
<rect x="365.781" y="59.2539" width="62.8999" height="27.4645" rx="13.7323" transform="rotate(-60 365.781 59.2539)" stroke="url(#paint3_linear)" stroke-width="7"/>
<defs>
<linearGradient id="paint0_linear" x1="529.72" y1="755.43" x2="301.96" y2="772.104" gradientUnits="userSpaceOnUse">
<stop stop-color="#21E8DE"/>
<stop offset="1" stop-color="#21E8DE" stop-opacity="0"/>
</linearGradient>
<linearGradient id="paint1_linear" x1="1559.46" y1="811.706" x2="1559.46" y2="953.706" gradientUnits="userSpaceOnUse">
<stop stop-color="white"/>
<stop offset="0.23194" stop-color="white" stop-opacity="0"/>
</linearGradient>
<linearGradient id="paint2_linear" x1="1523.12" y1="522.188" x2="1431.62" y2="528.887" gradientUnits="userSpaceOnUse">
<stop stop-color="#0098FF"/>
<stop offset="1" stop-color="#0098FF" stop-opacity="0"/>
</linearGradient>
<linearGradient id="paint3_linear" x1="429.203" y1="67.4711" x2="337.693" y2="74.1704" gradientUnits="userSpaceOnUse">
<stop stop-color="#21E8DE"/>
<stop offset="1" stop-color="#21E8DE" stop-opacity="0"/>
</linearGradient>
</defs>
</svg>
