<svg width="20" height="21" viewBox="0 0 20 21" fill="none" xmlns="http://www.w3.org/2000/svg">
<rect y="0.5" width="20" height="20" rx="10" fill="#C3CCD4"/>
<path d="M9.74642 5.992C8.07842 5.992 6.99842 7.108 6.99842 8.788L7.01042 9.004H8.03042V8.92C8.03042 7.756 8.64242 6.892 9.68642 6.892C10.6104 6.892 11.3304 7.54 11.3304 8.44C11.3304 8.92 11.1984 9.328 10.9224 9.676C10.6584 10.012 10.0224 10.504 9.03842 11.092C8.21042 11.596 7.62242 12.112 7.31042 12.64C7.01042 13.18 6.83042 13.792 6.77042 14.5H12.3264V13.6H7.95842C8.07842 12.94 8.52242 12.412 9.83042 11.656C10.8984 11.044 11.5944 10.504 11.9184 10.024C12.2424 9.556 12.4104 9.028 12.4104 8.44C12.4104 6.94 11.3184 5.992 9.74642 5.992Z" fill="#0D1834"/>
</svg>
