<svg width="20" height="21" viewBox="0 0 20 21" fill="none" xmlns="http://www.w3.org/2000/svg">
<rect y="0.5" width="20" height="20" rx="10" fill="#C3CCD4"/>
<path d="M9.65042 5.992C8.05442 5.992 7.09442 6.976 7.01042 8.74H8.03042C8.05442 7.576 8.65442 6.892 9.65042 6.892C10.5504 6.892 11.1624 7.408 11.1624 8.26C11.1624 9.076 10.4784 9.652 9.47042 9.652C9.30242 9.652 9.18242 9.652 9.08642 9.64V10.504C9.29042 10.48 9.49442 10.468 9.66242 10.468C10.7904 10.468 11.5104 11.092 11.5104 12.1C11.5104 13.06 10.7184 13.744 9.67442 13.744C8.59442 13.744 7.91042 13.084 7.86242 11.872H6.83042V11.908C6.83042 13.672 7.98242 14.644 9.67442 14.644C11.3784 14.644 12.5904 13.636 12.5904 12.052C12.5904 10.972 12.0624 10.216 11.0544 9.988V9.964C11.8224 9.592 12.2304 8.956 12.2304 8.26C12.2304 6.856 11.2704 5.992 9.65042 5.992Z" fill="#0D1834"/>
</svg>
