<svg width="76" height="74" viewBox="0 0 76 74" fill="none" xmlns="http://www.w3.org/2000/svg">
<path d="M38 0.402344L23.8625 9.25235H11.75V16.7523L4.1375 21.5898C1.9625 22.9023 0.5 25.2648 0.5 28.0023V65.5023C0.5 67.4915 1.29018 69.3991 2.6967 70.8056C4.10322 72.2122 6.01088 73.0023 8 73.0023H68C72.1625 73.0023 75.5 69.6648 75.5 65.5023V28.0023C75.5 25.2648 74.0375 22.9023 71.8625 21.5898L64.25 16.7523V9.25235H52.1375L38 0.402344ZM19.25 16.7523H56.75V35.0523L38 46.7523L19.25 35.0523V16.7523ZM23 20.5023V26.1273H53V20.5023H23ZM11.75 25.6773V30.3648L8 28.0023L11.75 25.6773ZM64.25 25.6773L68 28.0023L64.25 30.3648V25.6773ZM23 29.8773V35.5023H53V29.8773H23Z" fill="url(#paint0_linear)"/>
<defs>
<linearGradient id="paint0_linear" x1="38" y1="0.402344" x2="38" y2="73.0023" gradientUnits="userSpaceOnUse">
<stop stop-color="#21E8DE"/>
<stop offset="1" stop-color="#0098FF"/>
</linearGradient>
</defs>
</svg>
