<svg width="12" height="13" viewBox="0 0 12 13" fill="none" xmlns="http://www.w3.org/2000/svg">
<path fill-rule="evenodd" clip-rule="evenodd" d="M11.8236 0.858114C11.6128 0.64723 11.2709 0.64723 11.06 0.858114L6.01997 5.89811C5.80909 6.109 5.80909 6.45091 6.01997 6.66179C6.23085 6.87267 6.57276 6.87267 6.78364 6.66179L11.8236 1.62179C12.0345 1.41091 12.0345 1.069 11.8236 0.858114ZM10.7218 3.67667C10.4236 3.67667 10.1818 3.91843 10.1818 4.21667V10.2064C10.1818 10.9185 9.57947 11.5 8.83181 11.5H2.53181C1.78414 11.5 1.18181 10.9185 1.18181 10.2064V3.79353C1.18181 3.08138 1.78414 2.49995 2.53181 2.49995H8.39565C8.69389 2.49995 8.93565 2.25818 8.93565 1.95995C8.93565 1.66172 8.69389 1.41995 8.39565 1.41995H2.53181C1.19151 1.41995 0.101807 2.48072 0.101807 3.79353V10.2064C0.101807 11.5192 1.19151 12.58 2.53181 12.58H8.83181C10.1721 12.58 11.2618 11.5192 11.2618 10.2064V4.21667C11.2618 3.91843 11.02 3.67667 10.7218 3.67667Z" fill="#0D1834"/>
</svg>
