<svg width="70" height="80" viewBox="0 0 70 80" fill="none" xmlns="http://www.w3.org/2000/svg">
<path d="M56.25 45.75C57.525 45.75 58.7625 45.9 60 46.0875V34.5C60 32.5109 59.2098 30.6032 57.8033 29.1967C56.3968 27.7902 54.4891 27 52.5 27H48.75V19.5C48.75 9.15 40.35 0.75 30 0.75C19.65 0.75 11.25 9.15 11.25 19.5H18.75C18.75 13.275 23.775 8.25 30 8.25C36.225 8.25 41.25 13.275 41.25 19.5V27H7.5C5.51088 27 3.60322 27.7902 2.1967 29.1967C0.790176 30.6032 0 32.5109 0 34.5V72C0 73.9891 0.790176 75.8968 2.1967 77.3033C3.60322 78.7098 5.51088 79.5 7.5 79.5H36.7875C34.875 76.2 33.75 72.375 33.75 68.25C33.75 55.8375 43.8375 45.75 56.25 45.75ZM30 60.75C25.875 60.75 22.5 57.4125 22.5 53.25C22.5 49.0875 25.875 45.75 30 45.75C34.125 45.75 37.5 49.125 37.5 53.25C37.5 57.375 34.1625 60.75 30 60.75ZM69.375 61.6875L51.5625 79.5L41.25 68.25L45.6 63.9L51.5625 69.8625L65.025 56.4L69.375 61.6875Z" fill="url(#paint0_linear)"/>
<defs>
<linearGradient id="paint0_linear" x1="34.6875" y1="0.75" x2="34.6875" y2="79.5" gradientUnits="userSpaceOnUse">
<stop stop-color="#21E8DE"/>
<stop offset="1" stop-color="#0098FF"/>
</linearGradient>
</defs>
</svg>
