<svg width="80" height="80" viewBox="0 0 80 80" fill="none" xmlns="http://www.w3.org/2000/svg">
<rect width="80" height="80" rx="40" fill="#16CFB0"/>
<path d="M39.9998 19.8831C42.6674 19.8831 45.2259 20.9428 47.1122 22.8291C48.9985 24.7154 50.0583 27.2739 50.0583 29.9415C50.0583 32.6092 48.9985 35.1676 47.1122 37.054C45.2259 38.9403 42.6674 40 39.9998 40C37.3321 40 34.7737 38.9403 32.8874 37.054C31.001 35.1676 29.9413 32.6092 29.9413 29.9415C29.9413 27.2739 31.001 24.7154 32.8874 22.8291C34.7737 20.9428 37.3321 19.8831 39.9998 19.8831ZM39.9998 45.0293C51.1144 45.0293 60.1167 49.5304 60.1167 55.0877V60.117H19.8828V55.0877C19.8828 49.5304 28.8852 45.0293 39.9998 45.0293Z" fill="white"/>
</svg>
